<?xml version="1.0" encoding="UTF-8"?>
<svg width="156px" height="31px" viewBox="0 0 156 31" version="1.1" xmlns="http://www.w3.org/2000/svg" xmlns:xlink="http://www.w3.org/1999/xlink">
    <!-- Generator: Sketch 56.3 (81716) - https://sketch.com -->
    <title>Logo</title>
    <desc>Created with Sketch.</desc>
    <g id="Core" stroke="none" stroke-width="1" fill="none" fill-rule="evenodd">
        <g id="Haqqımızda" transform="translate(-1105.000000, -2158.000000)">
            <g id="sponsorlar" transform="translate(120.000000, 2048.000000)">
                <g id="slider" transform="translate(0.000000, 66.000000)">
                    <g id="Group-5" transform="translate(925.000000, 0.000000)">
                        <g id="Logo" transform="translate(60.000000, 44.000000)">
                            <path d="M0,11.305 C0,10.791 0.146,10.411 0.439,10.163 C0.731,9.917 1.14,9.793 1.667,9.793 C1.998,9.793 2.305,9.837 2.588,9.926 C2.87,10.016 3.06,10.089 3.158,10.149 L3.158,30.159 L0,30.159 L0,11.304 L0,11.305 Z M12.516,10.475 C13.340249,11.5939397 14.1397759,12.7308815 14.914,13.885 C15.459,14.695 16.054,15.588 16.698,16.567 C17.341,17.545 17.994,18.543 18.658,19.561 C19.3074916,20.5600367 19.950837,21.5630556 20.588,22.57 C21.211,23.558 21.776,24.467 22.283,25.297 L22.283,11.305 C22.283,10.791 22.429,10.411 22.722,10.164 C23.014,9.917 23.413,9.793 23.92,9.793 C24.271,9.793 24.583,9.837 24.856,9.926 C25.129,10.016 25.314,10.09 25.412,10.149 L25.412,30.159 L22.108,30.159 C21.5623675,29.3169748 21.0213594,28.4719621 20.485,27.624 C19.89,26.686 19.271,25.707 18.628,24.689 C17.9791377,23.6634838 17.3257982,22.6408074 16.668,21.621 C16.0350857,20.6391416 15.3967426,19.6607933 14.753,18.686 C14.184899,17.826487 13.6095451,16.9717898 13.027,16.122 C12.5734322,15.4586394 12.1107213,14.8015767 11.639,14.151 L11.639,30.159 L8.539,30.159 L8.539,11.483 C8.539,11.068 8.704,10.683 9.036,10.327 C9.367,9.971 9.864,9.793 10.527,9.793 C11.034,9.793 11.449,9.877 11.77,10.045 C12.092,10.213 12.34,10.357 12.516,10.475 L12.516,10.475 Z M34.77,10.475 C34.964,10.732 35.276,11.162 35.705,11.765 C36.134,12.367 36.621,13.074 37.167,13.885 C37.713,14.695 38.307,15.588 38.951,16.567 C39.594,17.545 40.248,18.543 40.911,19.561 C42.1464823,21.4559164 43.3552683,23.3681053 44.537,25.297 L44.537,11.305 C44.537,10.791 44.683,10.411 44.975,10.164 C45.268,9.917 45.667,9.793 46.174,9.793 C46.525,9.793 46.837,9.837 47.11,9.926 C47.383,10.016 47.568,10.09 47.666,10.149 L47.666,30.159 L44.36,30.159 C43.814403,29.316952 43.273395,28.4719395 42.737,27.624 C42.142,26.686 41.524,25.707 40.88,24.689 C40.2314704,23.6634857 39.5784642,22.6408093 38.921,21.621 C38.2877523,20.6391398 37.6490758,19.6607915 37.005,18.686 C36.4372151,17.8265012 35.8621947,16.9718042 35.28,16.122 C34.826475,15.4583737 34.3634271,14.8013057 33.891,14.151 L33.891,30.159 L30.791,30.159 L30.791,11.483 C30.791,11.068 30.957,10.683 31.288,10.327 C31.62,9.971 32.117,9.793 32.78,9.793 C33.287,9.793 33.701,9.877 34.023,10.045 C34.345,10.213 34.593,10.357 34.768,10.475 L34.77,10.475 Z M77.289,11.305 C77.289,10.791 77.435,10.411 77.727,10.163 C78.02,9.917 78.429,9.793 78.955,9.793 C79.287,9.793 79.594,9.837 79.877,9.926 C80.159,10.016 80.349,10.089 80.447,10.149 L80.447,27.372 L90.243,27.372 L90.243,30.158 L77.29,30.158 L77.29,11.305 L77.289,11.305 Z M102.262,12.432 C101.993944,13.0056052 101.735574,13.5836873 101.487,14.166 C100.760779,15.8524464 100.054066,17.5472261 99.367,19.25 C98.977,20.218 98.597,21.187 98.227,22.155 L106.209,22.155 C105.846698,21.176822 105.471666,20.2034061 105.084,19.235 L103.943,16.389 C103.582,15.49 103.256,14.689 102.963,13.988 C102.749688,13.4604016 102.515843,12.941339 102.262,12.432 L102.262,12.432 Z M92.056,30.159 C92.6857215,28.4309155 93.3387812,26.711425 94.015,25.001 C94.6947383,23.2786402 95.3820784,21.5592901 96.077,19.843 C96.749,18.183 97.387,16.641 97.992,15.218 C98.4907395,14.0342051 99.007466,12.8580689 99.542,11.69 C99.932,10.821 100.336,10.223 100.755,9.897 C101.174,9.571 101.706,9.407 102.349,9.407 C102.953,9.407 103.412,9.507 103.724,9.704 C104.035,9.902 104.269,10.08 104.425,10.238 C104.777,10.851 105.195,11.696 105.683,12.773 C106.214615,13.9520967 106.731323,15.1378579 107.233,16.33 C107.798367,17.6726175 108.349067,19.0213645 108.885,20.376 C110.165982,23.6223956 111.409066,26.8836172 112.614,30.159 L109.221,30.159 C109.088543,29.8519919 108.966803,29.5404703 108.856,29.225 L108.373,27.891 C108.198,27.407 108.012,26.903 107.818,26.379 C107.623,25.856 107.437,25.357 107.262,24.882 L97.173,24.882 C96.7646269,25.9025998 96.3745644,26.9304313 96.003,27.965 C95.672,28.895 95.409,29.625 95.214,30.159 L92.056,30.159 L92.056,30.159 Z M119.778,10.475 C119.973,10.732 120.285,11.162 120.714,11.765 C121.143,12.367 121.63,13.074 122.176,13.885 C122.722,14.695 123.317,15.588 123.96,16.567 C124.604,17.545 125.256,18.543 125.919,19.561 C127.153764,21.4563775 128.362544,23.3685564 129.545,25.297 L129.545,11.305 C129.545,10.791 129.692,10.411 129.984,10.164 C130.277,9.917 130.676,9.793 131.183,9.793 C131.534,9.793 131.846,9.837 132.119,9.926 C132.392,10.016 132.577,10.09 132.674,10.149 L132.674,30.159 L129.37,30.159 C128.824334,29.3169962 128.283326,28.4719833 127.747,27.624 C127.127222,26.6461589 126.508222,25.6678253 125.89,24.689 C125.241506,23.6634629 124.5885,22.6407863 123.931,21.621 C123.297685,20.6391836 122.659009,19.6608357 122.015,18.686 C121.44742,17.8263649 120.872398,16.9716661 120.29,16.122 C119.83641,15.4584189 119.373363,14.8013519 118.901,14.151 L118.901,30.159 L115.801,30.159 L115.801,11.483 C115.801,11.068 115.966,10.683 116.298,10.327 C116.629,9.971 117.126,9.793 117.79,9.793 C118.297,9.793 118.711,9.877 119.033,10.045 C119.354,10.213 119.603,10.357 119.778,10.475 L119.778,10.475 Z M152.501,19.961 C152.501,18.874 152.335,17.871 152.004,16.952 C151.691703,16.0647099 151.198637,15.2518997 150.556,14.565 C149.923,13.894 149.138,13.375 148.202,13.009 C147.267,12.644 146.184,12.461 144.956,12.461 L141.213,12.461 L141.213,27.491 L144.956,27.491 C146.184,27.491 147.267,27.303 148.202,26.927 C149.138,26.552 149.923,26.028 150.556,25.357 C151.198893,24.6702947 151.691994,23.8574277 152.004,22.97 C152.335,22.05 152.501,21.048 152.501,19.961 L152.501,19.961 Z M155.776,19.961 C155.776,21.502 155.532,22.901 155.045,24.155 C154.583447,25.3701571 153.859591,26.4685742 152.925,27.372 C151.999,28.262 150.878,28.948 149.562,29.432 C148.246,29.917 146.769,30.158 145.132,30.158 L138.055,30.158 L138.055,11.572 C138.055,10.999 138.211,10.559 138.523,10.252 C138.834,9.946 139.302,9.793 139.927,9.793 L145.132,9.793 C146.769,9.793 148.246,10.036 149.562,10.519 C150.878,11.004 151.999,11.685 152.925,12.565 C153.85,13.445 154.557,14.512 155.045,15.766 C155.532,17.021 155.776,18.42 155.776,19.961 Z" id="Shape" fill="#141414"></path>
                            <path d="M62.281,27.505 C58.408,27.505 55.257,24.311 55.257,20.385 C55.257,16.458 58.407,13.265 62.281,13.265 C66.154,13.265 69.305,16.458 69.305,20.385 C69.305,24.311 66.155,27.505 62.281,27.505 L62.281,27.505 Z M70.26,14.083 C70.209,13.952 70.158,13.82 70.103,13.691 C69.669,12.66 69.133,11.668 68.623,10.667 C68.4524011,10.3336829 68.2906775,9.99589738 68.138,9.654 C67.976,9.293 67.875,8.901 67.789,8.509 C67.688,8.036 67.662,7.566 67.776,7.092 C67.833,6.846 67.935,6.613 68.084,6.354 C67.704,6.514 67.44,6.734 67.234,7.011 C66.756,7.656 66.575,8.395 66.451,9.148 C66.423,9.329 66.404,9.51 66.379,9.691 C66.2094756,9.15731286 65.9953885,8.6388207 65.739,8.141 C65.339,7.354 64.841,6.616 64.385,5.857 C63.825,4.928 63.307,3.985 63.108,2.927 C62.9943735,2.29507543 63.0127591,1.64647321 63.162,1.022 C63.241,0.672 63.384,0.338 63.523,7.10542736e-15 C63.1960772,0.19720939 62.8845236,0.418840332 62.591,0.663 C61.551,1.537 60.819,2.571 60.56,3.861 C60.401,4.657 60.464,5.441 60.683,6.215 C60.722,6.357 60.773,6.499 60.763,6.646 C60.734,7.116 60.353,7.394 59.933,7.246 C59.723,7.171 59.596,7.011 59.505,6.833 C59.348803,6.53190347 59.265888,6.19818766 59.263,5.859 C59.254,5.414 59.263,4.967 59.26,4.521 C59.26,4.479 59.295,4.422 59.216,4.389 C59.15,4.464 59.08,4.536 59.019,4.615 C58.563,5.193 58.316,5.845 58.167,6.541 C57.957,7.502 57.857,8.476 57.827,9.45 C57.799,10.465 57.247,11.218 56.544,11.939 C56.464,11.995 56.384,12.052 56.305,12.111 C56.2953769,11.81158 56.3280318,11.5122992 56.402,11.222 C56.515,10.712 56.804,10.263 57.032,9.793 C57.121,9.606 57.226,9.423 57.286,9.163 C57.102,9.302 56.969,9.398 56.839,9.498 C55.684408,10.3975026 54.8031498,11.6007923 54.294,12.973 C54.080067,13.5467385 53.9252645,14.1408182 53.832,14.746 C52.7384282,16.4232024 52.1574019,18.3827761 52.1599913,20.385 C52.1599913,26.042 56.7,30.645 62.281,30.645 C67.862,30.645 72.4020097,26.042 72.4020097,20.385 C72.4051296,18.1051658 71.6517761,15.8887168 70.26,14.083 L70.26,14.083 Z" id="Shape" fill="#0D83F9"></path>
                        </g>
                    </g>
                </g>
            </g>
        </g>
    </g>
</svg>