<?xml version="1.0" encoding="UTF-8"?>
<svg width="407px" height="309px" viewBox="0 0 407 309" version="1.1" xmlns="http://www.w3.org/2000/svg" xmlns:xlink="http://www.w3.org/1999/xlink">
    <!-- Generator: Sketch 56.3 (81716) - https://sketch.com -->
    <title>image</title>
    <desc>Created with Sketch.</desc>
    <g id="Core" stroke="none" stroke-width="1" fill="none" fill-rule="evenodd">
        <g id="Haqqımızda" transform="translate(-157.000000, -786.000000)">
            <g id="main-section" transform="translate(120.000000, 760.000000)">
                <g id="idea">
                    <g id="image">
                        <rect id="Rectangle" x="0" y="0" width="483" height="360"></rect>
                        <g id="undraw-inspiration" transform="translate(37.000000, 26.145251)" fill-rule="nonzero">
                            <path d="M188,290.484575 C199.049596,289.04091 209.67354,287.813699 219.871832,286.802942 L215.948903,280.214856 C217.312191,279.834694 223.216466,283.648166 223.216466,283.648166 L218.230127,264.595702 C225.044953,265.36182 228.213652,284.79417 228.213652,284.79417 L235.941566,278.322055 L232.134946,285.652683 C263.342113,282.922164 290.270059,282.08048 312.905337,282.29102 L309.547699,276.65229 C310.910987,276.272132 316.815258,280.085604 316.815258,280.085604 L311.828919,261.03314 C318.643745,261.799253 321.812444,281.231604 321.812444,281.231604 L329.540358,274.759489 L325.508546,282.523823 C344.479026,283.053067 359.936319,284.311201 371.860857,285.682134 C368.512347,276.918964 356.805312,268.489736 356.805312,268.489736 C365.809398,270.844522 370.492182,274.674786 372.914983,278.224101 C373.397094,260.080649 370.085343,242.036768 363.192439,225.251397 C363.192439,225.251397 381.345767,259.551402 378.60581,282.40906 L378.257454,286.46946 C394.067384,288.547363 402,290.614525 402,290.614525 L188,290.484575 Z" id="Path" fill="#3F3D56"></path>
                            <ellipse id="Oval" fill="#3F3D56" cx="203.5" cy="292.625698" rx="203.5" ry="16.0893855"></ellipse>
                            <path d="M207.439924,36.2011173 C207.439924,36.2011173 211.98394,47.3639518 201.759907,52.6516098 C191.535875,57.9392678 229.023987,67.9270696 233,55.0016796 C233,55.0016796 222.775971,50.8890586 227.319983,38.5511871 L207.439924,36.2011173 Z" id="Path" fill="#FFB9B9"></path>
                            <polygon id="Path" fill="#FFB9B9" points="220.529412 262.458101 220 273.896698 229 275.530726 229 264.092128"></polygon>
                            <polygon id="Path" fill="#FFB9B9" points="183.470611 262.458101 184 273.896698 175 275.530726 175 264.092128"></polygon>
                            <ellipse id="Oval" fill="#FFB9B9" cx="220" cy="28.1564246" rx="16" ry="16.0893855"></ellipse>
                            <polygon id="Path" fill="#FFB9B9" points="241.500338 143.798883 241 148.268034 243.500215 158.882682 247 149.385735"></polygon>
                            <path d="M179.854592,144.504824 L176.462522,185.011118 C176.462522,185.011118 172.505102,192.427767 174.766483,198.703387 C174.766483,198.703387 171.374409,207.261055 172.505102,210.113628 C173.635795,212.966201 174.201137,215.818741 173.070427,216.959765 C171.939718,218.100789 171.374388,250.049414 173.070427,252.901962 C174.766467,255.75451 175.897155,262.600655 175.897155,262.600655 C175.897155,262.600655 185.508027,264.882699 187.769409,258.607074 C190.03079,252.33145 188.900097,251.760942 191.161479,250.049406 C193.42286,248.33787 193.42286,224.376401 193.42286,224.376401 C193.42286,224.376401 190.596132,221.523844 192.292171,220.382824 C193.988211,219.241805 195.118899,220.382824 193.42286,217.530268 C191.726821,214.677712 188.900097,214.677712 191.726825,213.536688 C193.301941,212.920699 194.816189,212.156657 196.249588,211.254644 L212.644613,167.895789 C212.644613,167.895789 218.86341,216.389244 219.994103,218.671288 C221.124796,220.953332 222.820831,218.100797 221.124792,220.953337 C219.428753,223.805876 218.86341,222.094356 219.428757,223.805893 C219.994103,225.517429 216.036683,250.049406 218.298068,255.184006 C219.617925,258.151692 220.750867,261.200478 221.690138,264.312187 C221.690138,264.312187 230.735668,268.305767 231.866361,265.453211 C232.997054,262.600655 232.431686,257.466055 234.127742,256.895542 C235.823798,256.32503 237.519817,255.184006 237.519817,250.619918 C237.519817,246.05583 240.911887,223.805893 240.911887,223.805893 C240.911887,223.805893 236.95447,222.094356 238.085159,219.2418 C239.215847,216.389244 239.215852,216.959756 238.650505,214.677712 C238.085159,212.395668 236.95447,211.825156 238.085159,210.11362 C239.215847,208.402084 239.215852,203.267488 239.215852,203.267488 L246,158.197101 L240.761077,142.793296 L179.854592,144.504824 Z" id="Path" fill="#2F2E41"></path>
                            <path d="M221.908743,269.322162 C221.908743,269.322162 220.163499,267.546433 219.581749,269.322162 C219,271.09789 219,287.671374 219,287.671374 C219,287.671374 223.653986,291.222835 223.653986,292.998563 C223.653986,294.774292 227.144478,300.693392 235.288974,299.509575 C235.370422,299.497737 235.450997,299.48537 235.5307,299.472474 C237.921262,299.078073 239.990294,297.562625 241.116509,295.381188 C242.242724,293.199751 242.294954,290.606392 241.257515,288.379844 L232.961981,270.505983 C232.961981,270.505983 227.144478,264.586883 221.908743,269.322162 Z" id="Path" fill="#2F2E41"></path>
                            <path d="M183.091258,269.322162 C183.091258,269.322162 184.836501,267.546433 185.418251,269.322162 C186,271.09789 186,287.671374 186,287.671374 C186,287.671374 181.34601,291.222835 181.34601,292.998563 C181.34601,294.774292 177.855519,300.693392 169.711025,299.509575 C169.629583,299.497737 169.549007,299.48537 169.469298,299.472474 C167.078737,299.078073 165.009706,297.562625 163.883491,295.381188 C162.757276,293.199751 162.705046,290.606392 163.742485,288.379844 L172.038018,270.505983 C172.038018,270.505983 177.855519,264.586883 183.091258,269.322162 Z" id="Path" fill="#2F2E41"></path>
                            <path d="M206.586486,10.4887848 L203.704118,9.30680683 C203.704118,9.30680683 209.730854,2.51049317 218.115947,3.10150615 L215.757591,0.442043627 C215.757591,0.442043627 221.522319,-1.92186882 226.762962,4.28343622 C229.517865,7.54543996 232.705324,11.3797413 234.692358,15.6990437 L237.779167,15.6990437 L236.490861,18.6047006 L241,21.5103662 L236.371828,20.9884312 C236.810208,23.4969688 236.660168,26.0763139 235.93408,28.5137829 L236.058133,30.8104175 C236.058133,30.8104175 230.693436,22.3084299 230.693436,21.1264519 L230.693436,24.0813773 C230.693436,24.0813773 227.811072,21.4219584 227.811072,19.6490153 L226.238886,21.7174648 L225.452793,18.4670373 L215.757603,21.7174648 L217.329785,19.0580459 L211.30304,19.9445044 L213.661396,16.6940768 C213.661396,16.6940768 206.848567,20.5354738 206.586486,23.7859013 C206.324482,27.0362853 202.918105,31.1731844 202.918105,31.1731844 L201.345919,28.2182633 C201.345919,28.2182633 198.987563,14.9211468 206.586486,10.4887848 Z" id="Path" fill="#2F2E41"></path>
                            <path d="M244.136103,63.3519553 L250.332003,63.3519553 C251.269751,63.3519553 252.082533,64.0184147 252.28867,64.9575618 C253.244776,69.3038359 255.708563,81.6239988 255.258508,91.3267249 C254.702387,103.315909 255.814628,111.879618 255.258508,113.592357 C254.702387,115.305097 255.258508,115.876011 255.258508,117.588755 C255.258508,119.301498 256.926865,118.159669 255.258508,120.443323 C253.59015,122.726977 253.590146,122.156063 253.590146,123.868806 C253.590146,125.58155 248.028952,151.843575 248.028952,151.843575 C248.028952,151.843575 244.205698,145.392669 240,146.619943 L240.799384,123.297908 L241.911625,113.592374 L240.243263,96.464964 L244.136103,63.3519553 Z" id="Path" fill="#3F3D56"></path>
                            <path d="M215.477106,56.7521553 C215.477106,56.7521553 205.871747,56.3991242 202.764128,52.2905028 C202.764128,52.2905028 182.705874,59.0375597 180.44579,64.7510728 C178.185705,70.4645858 188.356087,96.1753947 188.356087,96.1753947 C188.356087,96.1753947 170.840426,148.739713 179.315733,148.739713 C187.79104,148.739713 207.001775,155.59593 218.3022,151.596469 C225.304485,149.140778 232.48239,147.230694 239.773011,145.882956 C239.773011,145.882956 240.903051,130.456473 239.773011,127.599717 C238.642971,124.74296 235.817861,126.457012 237.512923,122.457552 C239.207985,118.458091 238.642967,117.886743 238.077945,116.172691 C237.512923,114.458638 239.207989,112.17323 239.207989,109.887825 C239.207989,107.602421 238.642988,102.460256 238.642988,102.460256 C238.642988,102.460256 253.89856,66.4651334 250.508431,63.0370205 C247.118303,59.6089076 229.861683,53.0035653 229.861683,53.0035653 C229.861683,53.0035653 225.08247,59.0375428 215.477106,56.7521553 Z" id="Path" fill="#3F3D56"></path>
                            <ellipse id="Oval" fill="#1BB2E5" cx="342.5" cy="217.709497" rx="12.5" ry="12.5698324"></ellipse>
                            <ellipse id="Oval" fill="#FFFFFF" cx="334.5" cy="218.715084" rx="2.5" ry="6.53631285"></ellipse>
                            <ellipse id="Oval" fill="#3F3D56" cx="303.5" cy="137.26257" rx="12.5" ry="12.5698324"></ellipse>
                            <ellipse id="Oval" fill="#FFFFFF" transform="translate(298.553826, 131.031443) rotate(-35.918530) translate(-298.553826, -131.031443) " cx="298.553826" cy="131.031443" rx="6.239599" ry="2.84542796"></ellipse>
                            <ellipse id="Oval" fill="#3F3D56" cx="334.5" cy="67.877095" rx="7.5" ry="7.54189944"></ellipse>
                            <ellipse id="Oval" fill="#FFFFFF" transform="translate(332.080739, 64.547253) rotate(-35.918530) translate(-332.080739, -64.547253) " cx="332.080739" cy="64.5472527" rx="3.88849251" ry="1.7732608"></ellipse>
                            <ellipse id="Oval" fill="#3F3D56" cx="278.5" cy="271.005587" rx="7.5" ry="7.54189944"></ellipse>
                            <ellipse id="Oval" fill="#FFFFFF" transform="translate(273.862216, 266.131009) rotate(-35.918530) translate(-273.862216, -266.131009) " cx="273.862216" cy="266.131009" rx="3.88849251" ry="1.7732608"></ellipse>
                            <ellipse id="Oval" fill="#3F3D56" cx="342.5" cy="161.396648" rx="12.5" ry="12.5698324"></ellipse>
                            <ellipse id="Oval" fill="#FFFFFF" cx="333.5" cy="161.396648" rx="2.5" ry="6.53631285"></ellipse>
                            <ellipse id="Oval" fill="#1BB2E5" cx="302.5" cy="80.9497207" rx="12.5" ry="12.5698324"></ellipse>
                            <ellipse id="Oval" fill="#FFFFFF" transform="translate(297.423378, 73.925561) rotate(-35.918530) translate(-297.423378, -73.925561) " cx="297.423378" cy="73.9255605" rx="6.239599" ry="2.84542796"></ellipse>
                            <ellipse id="Oval" fill="#1BB2E5" cx="333.5" cy="12.5698324" rx="7.5" ry="7.54189944"></ellipse>
                            <ellipse id="Oval" fill="#FFFFFF" transform="translate(330.950285, 7.441373) rotate(-35.918530) translate(-330.950285, -7.441373) " cx="330.950285" cy="7.44137337" rx="3.88849251" ry="1.7732608"></ellipse>
                            <ellipse id="Oval" fill="#3F3D56" cx="275.5" cy="213.687151" rx="7.5" ry="7.54189944"></ellipse>
                            <ellipse id="Oval" fill="#FFFFFF" transform="translate(272.731762, 209.025130) rotate(-35.918530) translate(-272.731762, -209.025130) " cx="272.731762" cy="209.02513" rx="3.88849251" ry="1.7732608"></ellipse>
                            <rect id="Rectangle" fill="#F2F2F2" x="29" y="161.899441" width="156" height="95.5307263"></rect>
                            <path d="M171.60874,148.826816 C171.60874,148.826816 166.201585,176.151548 175.213511,173.82604 C184.225437,171.500531 180.019865,148.826816 180.019865,148.826816 L171.60874,148.826816 Z" id="Path" fill="#FFB9B9"></path>
                            <path d="M185.556042,63.3519553 L183.52241,64.365755 C181.917713,65.1657275 180.78094,66.6683091 180.450302,68.4264559 L172.385961,111.308703 C172.385961,111.308703 170.095513,116.446926 170.095513,117.01784 C170.095513,117.588755 171.240735,117.588734 170.095513,119.301494 C168.950291,121.014255 167.232451,120.443323 168.377673,121.585148 C169.031326,122.177615 169.439707,122.991955 169.522899,123.868806 L170.668122,151.843575 C170.668122,151.843575 180.402532,148.989007 183.265594,151.843575 C183.265594,151.843575 180.402532,143.27987 182.120367,140.425285 C183.838203,137.5707 183.838207,133.574319 183.838207,133.574319 C183.838207,133.574319 182.69298,133.574319 185.556042,130.719751 C188.419103,127.865182 188.991717,126.723358 188.419103,126.152443 C187.84649,125.581529 187.273881,120.443306 187.273881,119.872392 C187.273881,119.301477 193,81.0502633 193,81.0502633 L185.556042,63.3519553 Z" id="Path" fill="#3F3D56"></path>
                            <ellipse id="Oval" fill="#1BB2E5" cx="107.5" cy="207.653631" rx="34.5" ry="34.6927374"></ellipse>
                            <path d="M139.367977,229.273743 C132.669789,229.273743 117.878379,222.329828 104.7235,214.196833 C88.3995101,204.104513 72.5456423,190.913214 75.3172421,186.345364 C76.100651,185.054507 78.0423706,184.716924 81.25443,185.312094 L81.0241343,186.577822 C78.5367712,186.115843 76.8535648,186.277097 76.4043906,187.017181 C75.7491952,188.096946 77.1938161,191.231528 83.2127419,196.790767 C88.6978492,201.857447 96.5736422,207.64914 105.389479,213.099479 C114.205112,218.549814 122.895226,222.999978 129.858563,225.63027 C137.499701,228.516902 140.922345,228.390834 141.577124,227.311905 C142.026919,226.570565 141.402019,224.981913 139.862377,222.952641 L140.874421,222.170251 C142.862612,224.79092 143.448094,226.692447 142.664268,227.983723 C142.12609,228.870822 140.981891,229.273743 139.367977,229.273743 Z" id="Path" fill="#3F3D56"></path>
                            <ellipse id="Oval" fill="#FFFFFF" cx="103.5" cy="189.553073" rx="7.5" ry="7.54189944"></ellipse>
                            <ellipse id="Oval" fill="#FFFFFF" cx="106.5" cy="228.77095" rx="4.5" ry="4.52513966"></ellipse>
                            <ellipse id="Oval" fill="#FFFFFF" cx="122.5" cy="212.681564" rx="4.5" ry="4.52513966"></ellipse>
                            <path d="M33.8929392,156.746268 C30.9434099,154.17268 26.8757941,153.404316 23.2223235,154.730613 C19.5688529,156.056909 16.8845765,159.276369 16.1806355,163.176254 C15.4766944,167.076139 16.860034,171.063962 19.8095636,173.63755 L36.3212539,188.044693 L50.4046295,171.153411 C54.2936461,166.489012 53.7500493,159.482621 49.190472,155.504198 C44.6308947,151.525776 37.7819561,152.08187 33.8929392,156.746268 L33.8929392,156.746268 Z" id="Path" fill="#FF6584"></path>
                        </g>
                    </g>
                </g>
            </g>
        </g>
    </g>
</svg>