<?xml version="1.0" encoding="UTF-8"?>
<svg width="215px" height="55px" viewBox="0 0 215 55" version="1.1" xmlns="http://www.w3.org/2000/svg" xmlns:xlink="http://www.w3.org/1999/xlink">
    <!-- Generator: Sketch 56.3 (81716) - https://sketch.com -->
    <title>logo_az</title>
    <desc>Created with Sketch.</desc>
    <g id="Core" stroke="none" stroke-width="1" fill="none" fill-rule="evenodd">
        <g id="Haqqımızda" transform="translate(-150.000000, -2146.000000)" fill="#005487" fill-rule="nonzero">
            <g id="sponsorlar" transform="translate(120.000000, 2048.000000)">
                <g id="slider" transform="translate(0.000000, 66.000000)">
                    <g id="Group-2">
                        <g id="logo_az" transform="translate(30.000000, 32.000000)">
                            <path d="M72,18 L70.8068182,18 L70.2272727,16.2222222 L67.7045455,16.2222222 L67.1590909,18 L66,18 L68.4204545,11 L69.6136364,11 L72,18 Z M69.9545455,15.2592593 L69.0681818,12.4814815 C69.0340909,12.3333333 69,12.1851852 69,12.037037 L69,12.037037 C68.9659091,12.1851852 68.9659091,12.3333333 68.8977273,12.4814815 L68.0113636,15.2592593 L69.9545455,15.2592593 Z" id="Shape"></path>
                            <polygon id="Path" points="78 11.5185185 74.4864865 17.037037 77.9324324 17.037037 77.9324324 18 73 18 73 17.4814815 76.5135135 12 73.2702703 12 73.2702703 11 78 11"></polygon>
                            <path d="M79,14.0371939 L84.686105,14.0371939 C84.6466182,13.4663303 84.3702103,12.9311456 83.8963682,12.5386768 C83.4225261,12.181887 82.7907367,11.9678132 82.1589472,11.9678132 C81.4086973,11.9678132 80.6584473,12.1462081 80.0266579,12.5386768 L80.0266579,11.5039864 C80.6979341,11.1471967 81.487671,10.9688018 82.2774078,11.0044807 C83.3040656,10.9688018 84.2912366,11.2899126 85.0019998,11.9321342 C85.7127629,12.6100348 86.0681445,13.5376882 85.9891708,14.4653417 C86.0286576,15.3929951 85.6732761,16.2849696 85.0019998,16.9985492 C84.3307235,17.6764498 83.3830393,18.0332396 82.3563814,17.9975606 C81.4086973,18.0332396 80.4610131,17.6764498 79.8292237,16.9985492 C79.3158947,16.3206486 79,15.3573162 79,14.0371939 Z M84.686105,14.9648474 L80.3425526,14.9648474 C80.3425526,15.5000321 80.5399868,16.0708957 80.9348552,16.4990435 C81.3297236,16.8915123 81.8825394,17.1055861 82.4353551,17.0699071 C83.0276577,17.1055861 83.6199603,16.8915123 84.0148288,16.4990435 C84.4096972,16.0708957 84.6466182,15.5357111 84.686105,14.9648474 L84.686105,14.9648474 Z" id="Shape"></path>
                            <path d="M92,18 L90.7414966,18 L89.7210884,16.1111111 C89.6530612,15.962963 89.5510204,15.8148148 89.4489796,15.6666667 C89.3809524,15.5555556 89.2789116,15.4444444 89.1768707,15.3703704 C89.0748299,15.2962963 88.9727891,15.2222222 88.8707483,15.1851852 C88.7687075,15.1481481 88.6326531,15.1481481 88.4965986,15.1481481 L88.0544218,15.1481481 L88.0544218,18 L87,18 L87,11 L89.1088435,11 C89.3809524,11 89.6870748,11.037037 89.9591837,11.1111111 C90.1972789,11.1851852 90.4353741,11.2962963 90.6394558,11.4814815 C90.8435374,11.6296296 90.9795918,11.8518519 91.0816327,12.0740741 C91.1836735,12.3333333 91.2517007,12.6296296 91.2517007,12.8888889 C91.2517007,13.1111111 91.2176871,13.3333333 91.1496599,13.5555556 C91.0816327,13.7407407 90.9795918,13.9259259 90.877551,14.1111111 C90.7414966,14.2592593 90.6054422,14.4074074 90.4353741,14.5185185 C90.2653061,14.6296296 90.0612245,14.7407407 89.8571429,14.7777778 L89.8571429,14.7777778 C89.9591837,14.8518519 90.0612245,14.9259259 90.1632653,15 C90.2653061,15.0740741 90.3333333,15.1851852 90.4013605,15.2592593 C90.4693878,15.3703704 90.5714286,15.4444444 90.6394558,15.5555556 C90.707483,15.6666667 90.8095238,15.8148148 90.9115646,15.962963 L92,18 Z M88.0884354,11.9259259 L88.0884354,14.1851852 L88.9727891,14.1851852 C89.1428571,14.1851852 89.2789116,14.1481481 89.414966,14.1111111 C89.5510204,14.0740741 89.6870748,13.962963 89.7891156,13.8888889 C89.8911565,13.7777778 89.9591837,13.6666667 90.0272109,13.5185185 C90.0952381,13.3703704 90.1292517,13.1851852 90.0952381,13 C90.0952381,12.7037037 89.9931973,12.4074074 89.7891156,12.2222222 C89.5510204,12 89.244898,11.9259259 88.9387755,11.9259259 L88.0884354,11.9259259 Z" id="Shape"></path>
                            <path d="M93,17.9959958 L93,11.005548 L95.3255814,11.005548 C95.9069767,10.9685615 96.5271318,11.1165075 97.0310078,11.4493859 C97.4186047,11.7082914 97.6511628,12.1521294 97.6511628,12.5959673 C97.6511628,12.9658323 97.5348837,13.3356972 97.3023256,13.6315892 C97.0697674,13.9274812 96.7209302,14.1494002 96.3333333,14.2603596 L96.3333333,14.2603596 C96.7984496,14.2973461 97.2248062,14.4822786 97.5348837,14.8151571 C97.8449612,15.1480356 98,15.554887 98,15.998725 C98,16.5535224 97.7286822,17.1083199 97.2635659,17.4411983 C96.7209302,17.8110633 96.0620155,18.0329823 95.4031008,17.9959958 L93,17.9959958 Z M94.2403101,11.9302104 L94.2403101,13.9274812 L95.0155039,13.9274812 C95.3643411,13.9644677 95.7131783,13.8535082 96.0232558,13.6315892 C96.255814,13.4466567 96.4108527,13.1137783 96.372093,12.8178863 C96.372093,12.2261024 95.9457364,11.9302104 95.1317829,11.9302104 L94.2403101,11.9302104 Z M94.2403101,14.8521436 L94.2403101,17.0713334 L95.2868217,17.0713334 C95.6744186,17.1083199 96.0232558,16.9973604 96.3333333,16.7754414 C96.6046512,16.5535224 96.7209302,16.2576304 96.7209302,15.9617385 C96.7209302,15.2220085 96.1782946,14.8891301 95.1317829,14.8521436 L94.2403101,14.8521436 Z" id="Shape"></path>
                            <path d="M105,18 L103.615819,18 L102.943503,16.2222222 L99.9774011,16.2222222 L99.3446328,18 L98,18 L100.80791,11 L102.19209,11 L105,18 Z M102.627119,15.2592593 L101.59887,12.4814815 C101.559322,12.3333333 101.519774,12.1851852 101.519774,12.037037 L101.519774,12.037037 C101.480226,12.1851852 101.480226,12.3333333 101.40113,12.4814815 L100.372881,15.2592593 L102.627119,15.2592593 Z" id="Shape"></path>
                            <path d="M110,11 L107.568627,15.4578947 L107.568627,18 L106.352941,18 L106.352941,15.4947368 L104,11.0368421 L105.411765,11.0368421 L106.862745,14.0210526 C106.862745,14.0578947 106.941176,14.2052632 107.019608,14.4263158 L107.019608,14.4263158 C107.058824,14.2789474 107.137255,14.1684211 107.176471,14.0210526 L108.705882,11.0368421 L110,11 Z" id="Path"></path>
                            <path d="M114.965535,17.600157 C114.379632,17.8870137 113.759265,18.0304421 113.138897,17.994585 C112.277275,18.0304421 111.450118,17.7077283 110.864215,17.0623006 C110.278313,16.3810158 109.968129,15.5204455 110.002594,14.6240181 C109.968129,13.6558766 110.312777,12.687735 110.96761,12.0064502 C111.622443,11.3251654 112.484064,10.9665945 113.414616,11.0024516 C113.966054,11.0024516 114.483027,11.0741658 115,11.2893083 L115,12.4008783 C114.551957,12.1140215 114.069448,11.9705931 113.552475,12.0064502 C112.897643,11.9705931 112.277275,12.2574499 111.829232,12.7235921 C111.381188,13.2255914 111.139934,13.9068762 111.174399,14.6240181 C111.139934,15.2694458 111.346724,15.9148735 111.794767,16.4168729 C112.208345,16.8830151 112.794248,17.0981577 113.414616,17.0981577 C113.966054,17.0981577 114.551957,16.9547293 115,16.6320154 L114.965535,17.600157 Z" id="Path"></path>
                            <path d="M123,18 L121.615819,18 L120.943503,16.2222222 L117.977401,16.2222222 L117.344633,18 L116,18 L118.80791,11 L120.19209,11 L123,18 Z M120.627119,15.2592593 L119.59887,12.4814815 C119.559322,12.3333333 119.519774,12.1851852 119.519774,12.037037 L119.519774,12.037037 C119.480226,12.1851852 119.480226,12.3333333 119.40113,12.4814815 L118.372881,15.2592593 L120.627119,15.2592593 Z" id="Shape"></path>
                            <path d="M129,18 L127.695652,18 L124.341615,12.8518519 C124.267081,12.7407407 124.192547,12.5925926 124.118012,12.4444444 L124.080745,12.4444444 C124.118012,12.7777778 124.118012,13.0740741 124.118012,13.4074074 L124.118012,18 L123,18 L123,11 L124.378882,11 L127.621118,16.037037 C127.770186,16.2592593 127.84472,16.4074074 127.881988,16.4814815 L127.881988,16.4814815 C127.84472,16.1851852 127.807453,15.8518519 127.84472,15.5555556 L127.84472,11 L128.962733,11 L129,18 Z" id="Path"></path>
                            <path d="M139,18 L137.741497,18 L136.721088,16.1111111 C136.653061,15.962963 136.55102,15.8148148 136.44898,15.6666667 C136.380952,15.5555556 136.278912,15.4444444 136.176871,15.3703704 C136.07483,15.2962963 135.972789,15.2222222 135.870748,15.1851852 C135.768707,15.1481481 135.632653,15.1481481 135.496599,15.1481481 L135.054422,15.1481481 L135.054422,18 L134,18 L134,11 L136.108844,11 C136.380952,11 136.687075,11.037037 136.959184,11.1111111 C137.197279,11.1851852 137.435374,11.2962963 137.639456,11.4814815 C137.843537,11.6296296 137.979592,11.8518519 138.081633,12.0740741 C138.183673,12.3333333 138.251701,12.6296296 138.251701,12.8888889 C138.251701,13.1111111 138.217687,13.3333333 138.14966,13.5555556 C138.081633,13.7407407 137.979592,13.9259259 137.877551,14.1111111 C137.741497,14.2592593 137.605442,14.4074074 137.435374,14.5185185 C137.265306,14.6296296 137.061224,14.7407407 136.857143,14.7777778 L136.857143,14.7777778 C136.959184,14.8518519 137.061224,14.9259259 137.163265,15 C137.265306,15.0740741 137.333333,15.1851852 137.401361,15.2592593 C137.469388,15.3703704 137.571429,15.4444444 137.639456,15.5555556 C137.707483,15.6666667 137.809524,15.8148148 137.911565,15.962963 L139,18 Z M135.088435,11.9259259 L135.088435,14.1851852 L135.972789,14.1851852 C136.142857,14.1851852 136.278912,14.1481481 136.414966,14.1111111 C136.55102,14.0740741 136.687075,13.962963 136.789116,13.8888889 C136.891156,13.7777778 136.959184,13.6666667 137.027211,13.5185185 C137.095238,13.3703704 137.129252,13.1851852 137.095238,13 C137.095238,12.7037037 136.993197,12.4074074 136.789116,12.2222222 C136.55102,12 136.244898,11.9259259 135.938776,11.9259259 L135.088435,11.9259259 Z" id="Shape"></path>
                            <polygon id="Path" points="144 18 140 18 140 11 143.849057 11 143.849057 12 141.169811 12 141.169811 13.962963 143.622642 13.962963 143.622642 14.9259259 141.169811 14.9259259 141.169811 17 144 17"></polygon>
                            <path d="M145.05174,17.7131817 L145.05174,16.5659084 C145.174347,16.6734653 145.296955,16.7451699 145.460431,16.8168745 C145.623908,16.888579 145.787385,16.9602836 145.991731,16.9961359 C146.155207,17.0319882 146.359553,17.1036928 146.52303,17.1036928 C146.686506,17.1395451 146.849983,17.1395451 147.01346,17.1395451 C147.422151,17.1753974 147.871712,17.1036928 148.239535,16.888579 C148.48475,16.7451699 148.648226,16.4942039 148.648226,16.2073855 C148.648226,16.0639764 148.607357,15.9205672 148.525619,15.7771581 C148.443881,15.6337489 148.321273,15.5261921 148.157796,15.4544875 C147.99432,15.3469306 147.789974,15.2393737 147.585628,15.1676692 L146.890852,14.8808509 C146.604768,14.773294 146.359553,14.6298848 146.155207,14.522328 C145.950861,14.4147711 145.746516,14.2713619 145.54217,14.0921005 C145.378693,13.9486913 145.215216,13.7694299 145.133478,13.5543162 C145.05174,13.3392024 144.970001,13.1240887 145.010871,12.8731227 C145.010871,12.5863044 145.092609,12.299486 145.256086,12.04852 C145.419562,11.797554 145.623908,11.6182926 145.909992,11.4748834 C146.196076,11.295622 146.482161,11.1880651 146.809114,11.1163605 C147.136067,11.0446559 147.50389,11.0088036 147.871712,11.0088036 C148.48475,10.9729514 149.097787,11.0446559 149.629086,11.2597697 L149.629086,12.3711906 C149.138656,12.0843723 148.525619,11.9409632 147.912581,11.9409632 C147.708236,11.9409632 147.544759,11.9409632 147.340413,11.9768154 C147.176936,12.0126677 146.972591,12.04852 146.849983,12.1202246 C146.686506,12.1919292 146.563899,12.299486 146.482161,12.4070429 C146.400422,12.5145998 146.318684,12.6580089 146.359553,12.8014181 C146.359553,12.9448273 146.400422,13.0882364 146.482161,13.1957933 C146.563899,13.3033501 146.686506,13.410907 146.809114,13.5184639 C146.972591,13.6260207 147.136067,13.6977253 147.299544,13.8052822 C147.50389,13.8769868 147.749105,13.9845436 147.99432,14.0921005 C148.239535,14.1996574 148.525619,14.3072142 148.770834,14.4864757 C149.016049,14.6298848 149.220395,14.773294 149.383871,14.9167031 C149.547348,15.0601123 149.710825,15.275226 149.833432,15.4544875 C149.95604,15.6696012 149.996909,15.9205672 149.996909,16.135681 C150.037778,16.7093176 149.669955,17.2829542 149.097787,17.5697725 C148.811703,17.7131817 148.48475,17.8207386 148.157796,17.8924431 C147.789974,17.9641477 147.422151,18 147.054329,18 C146.890852,18 146.727376,18 146.563899,17.9641477 C146.359553,17.9641477 146.196076,17.9282954 145.991731,17.8924431 C145.787385,17.8565908 145.623908,17.8207386 145.419562,17.7848863 C145.337824,17.8207386 145.174347,17.7848863 145.05174,17.7131817 Z" id="Path"></path>
                            <path d="M152.219565,15.4595661 L152.219565,18 L151,18 L151,11.0046022 L153.281767,11.0046022 C153.989901,10.9677844 154.698036,11.1518738 155.288148,11.5568705 C155.760238,11.9618672 156.035623,12.5509533 155.996282,13.1400394 C156.035623,13.7659435 155.760238,14.3918475 155.248807,14.7968442 C154.698036,15.2386588 153.989901,15.496384 153.242426,15.4595661 L152.219565,15.4595661 Z M152.219565,11.9618672 L152.219565,14.5023011 L153.006381,14.5023011 C153.43913,14.539119 153.871879,14.3918475 154.225946,14.1709402 C154.501332,13.913215 154.658695,13.581854 154.658695,13.2136752 C154.658695,12.4036818 154.147265,11.9986851 153.124404,11.9986851 L152.219565,11.9618672 Z" id="Shape"></path>
                            <path d="M162,15.0984456 C162,17.0207254 161.14966,18 159.44898,18 C157.816327,18 157,17.0569948 157,15.2072539 L157,11 L158.054422,11 L158.054422,14.9533679 C158.054422,16.2953368 158.530612,16.984456 159.517007,16.984456 C160.469388,16.984456 160.945578,16.3316062 160.945578,15.0259067 L160.945578,11 L162,11 L162,15.0984456 Z" id="Path"></path>
                            <path d="M163,17.9959958 L163,11.005548 L165.34375,11.005548 C165.929688,10.9685615 166.554688,11.1165075 167.023438,11.4493859 C167.414062,11.7082914 167.648438,12.1521294 167.648438,12.5959673 C167.648438,12.9658323 167.53125,13.3356972 167.296875,13.6315892 C167.0625,13.9274812 166.710938,14.1494002 166.320312,14.2603596 L166.320312,14.2603596 C166.789062,14.2973461 167.21875,14.4822786 167.53125,14.8151571 C167.84375,15.1480356 168,15.554887 168,15.998725 C168,16.5535224 167.726562,17.1083199 167.257813,17.4411983 C166.710938,17.8110633 166.046875,18.0329823 165.382813,17.9959958 L163,17.9959958 Z M164.25,11.9302104 L164.25,13.9274812 L165.03125,13.9274812 C165.382812,13.9644677 165.734375,13.8535082 166.046875,13.6315892 C166.28125,13.4466567 166.4375,13.1137783 166.398438,12.8178863 C166.398438,12.2261024 165.96875,11.9302104 165.148438,11.9302104 L164.25,11.9302104 Z M164.25,14.8521436 L164.25,17.0713334 L165.304688,17.0713334 C165.695312,17.1083199 166.046875,16.9973604 166.359375,16.7754414 C166.632812,16.5535224 166.75,16.2576304 166.75,15.9617385 C166.75,15.2220085 166.203125,14.8891301 165.148438,14.8521436 L164.25,14.8521436 Z" id="Shape"></path>
                            <polygon id="Path" points="173 18 169 18 169 11 170.180952 11 170.180952 17.037037 172.961905 17.037037"></polygon>
                            <path d="M175.470588,10.1392405 C175.352941,10.1392405 175.235294,10.0632911 175.147059,9.98734177 C175.058824,9.87341772 175,9.72151899 175,9.56962025 C175,9.41772152 175.058824,9.26582278 175.147059,9.15189873 C175.235294,9.03797468 175.352941,9 175.5,9 C175.617647,9 175.735294,9.03797468 175.852941,9.15189873 C175.941176,9.26582278 176,9.41772152 176,9.56962025 C176,9.72151899 175.941176,9.87341772 175.852941,9.98734177 C175.735294,10.1012658 175.588235,10.1772152 175.470588,10.1392405 Z M175.970588,18 L175.029412,18 L175.029412,10.8227848 L175.970588,10.8227848 L175.970588,18 Z" id="Shape"></path>
                            <path d="M182,18 L180.566434,18 L178.258741,14.7777778 C178.188811,14.7037037 178.153846,14.6296296 178.083916,14.5185185 L178.083916,14.5185185 L178.083916,17.962963 L177,17.962963 L177,11 L178.083916,11 L178.083916,14.2962963 L178.083916,14.2962963 C178.118881,14.2222222 178.188811,14.1481481 178.258741,14.0740741 L180.461538,11.037037 L181.79021,11.037037 L179.202797,14.4074074 L182,18 Z" id="Path"></path>
                            <path d="M189,18 L187.834286,18 L187.251429,16.2222222 L184.714286,16.2222222 L184.165714,18 L183,18 L185.434286,11 L186.634286,11 L189,18 Z M186.942857,15.2592593 L186.051429,12.4814815 C186.017143,12.3333333 185.982857,12.1851852 185.982857,12.037037 L185.982857,12.037037 C185.948571,12.1851852 185.948571,12.3333333 185.88,12.4814815 L184.988571,15.2592593 L186.942857,15.2592593 Z" id="Shape"></path>
                            <path d="M190.05174,17.7131817 L190.05174,16.5659084 C190.174347,16.6734653 190.296955,16.7451699 190.460431,16.8168745 C190.623908,16.888579 190.787385,16.9602836 190.991731,16.9961359 C191.155207,17.0319882 191.359553,17.1036928 191.52303,17.1036928 C191.686506,17.1395451 191.849983,17.1395451 192.01346,17.1395451 C192.422151,17.1753974 192.871712,17.1036928 193.239535,16.888579 C193.48475,16.7451699 193.648226,16.4942039 193.648226,16.2073855 C193.648226,16.0639764 193.607357,15.9205672 193.525619,15.7771581 C193.443881,15.6337489 193.321273,15.5261921 193.157796,15.4544875 C192.99432,15.3469306 192.789974,15.2393737 192.585628,15.1676692 L191.890852,14.8808509 C191.604768,14.773294 191.359553,14.6298848 191.155207,14.522328 C190.950861,14.4147711 190.746516,14.2713619 190.54217,14.0921005 C190.378693,13.9486913 190.215216,13.7694299 190.133478,13.5543162 C190.05174,13.3392024 189.970001,13.1240887 190.010871,12.8731227 C190.010871,12.5863044 190.092609,12.299486 190.256086,12.04852 C190.419562,11.797554 190.623908,11.6182926 190.909992,11.4748834 C191.196076,11.295622 191.482161,11.1880651 191.809114,11.1163605 C192.136067,11.0446559 192.50389,11.0088036 192.871712,11.0088036 C193.48475,10.9729514 194.097787,11.0446559 194.629086,11.2597697 L194.629086,12.3711906 C194.138656,12.0843723 193.525619,11.9409632 192.912581,11.9409632 C192.708236,11.9409632 192.544759,11.9409632 192.340413,11.9768154 C192.176936,12.0126677 191.972591,12.04852 191.849983,12.1202246 C191.686506,12.1919292 191.563899,12.299486 191.482161,12.4070429 C191.400422,12.5145998 191.318684,12.6580089 191.359553,12.8014181 C191.359553,12.9448273 191.400422,13.0882364 191.482161,13.1957933 C191.563899,13.3033501 191.686506,13.410907 191.809114,13.5184639 C191.972591,13.6260207 192.136067,13.6977253 192.299544,13.8052822 C192.50389,13.8769868 192.749105,13.9845436 192.99432,14.0921005 C193.239535,14.1996574 193.525619,14.3072142 193.770834,14.4864757 C194.016049,14.6298848 194.220395,14.773294 194.383871,14.9167031 C194.547348,15.0601123 194.710825,15.275226 194.833432,15.4544875 C194.95604,15.6696012 194.996909,15.9205672 194.996909,16.135681 C195.037778,16.7093176 194.669955,17.2829542 194.097787,17.5697725 C193.811703,17.7131817 193.48475,17.8207386 193.157796,17.8924431 C192.789974,17.9641477 192.422151,18 192.054329,18 C191.890852,18 191.727376,18 191.563899,17.9641477 C191.359553,17.9641477 191.196076,17.9282954 190.991731,17.8924431 C190.787385,17.8565908 190.623908,17.8207386 190.419562,17.7848863 C190.296955,17.8207386 190.174347,17.7848863 190.05174,17.7131817 Z" id="Path"></path>
                            <polygon id="Path" points="197 18 196 18 196 11 197 11"></polygon>
                            <path d="M73,31 L71.725,31 L68.35,25.8789474 C68.275,25.7684211 68.2,25.6210526 68.125,25.4736842 L68.0875,25.4736842 C68.125,25.8052632 68.125,26.1 68.125,26.4315789 L68.125,31 L67,31 L67,24 L68.3875,24 L71.6125,29.0105263 C71.7625,29.2315789 71.8375,29.3789474 71.875,29.4526316 L71.875,29.4526316 C71.8375,29.1578947 71.8,28.8263158 71.8375,28.5315789 L71.8375,24 L72.9625,24 L73,31 Z" id="Path"></path>
                            <path d="M74,27.001515 L79.7183622,27.001515 C79.6786513,26.4306513 79.4006754,25.8954666 78.9241452,25.5029979 C78.447615,25.1105291 77.8122415,24.9321342 77.137157,24.9678132 C76.3826509,24.9678132 75.6281448,25.1462081 74.9927712,25.5386768 L74.9927712,24.5039864 C75.6678556,24.1471967 76.4620726,23.9688018 77.2562896,24.0044807 C78.2887716,23.9688018 79.2815429,24.2899126 79.9963381,24.9321342 C80.7111334,25.6100348 81.068531,26.5376882 80.9891093,27.4653417 C81.0288202,28.3929951 80.6714226,29.2849696 79.9963381,29.9985492 C79.3212537,30.6764498 78.3681933,31.0332396 77.3357113,30.9975606 C76.3826509,31.0332396 75.4295905,30.6764498 74.794217,29.9985492 C74.2779759,29.2849696 74,28.2859582 74,27.001515 Z M79.6786513,27.9291684 L75.310458,27.9291684 C75.310458,28.4643531 75.5090122,28.9995378 75.9061207,29.4276855 C76.3032292,29.8201543 76.8591811,30.0342282 77.415133,29.9985492 C78.0107957,30.0342282 78.6064584,29.8201543 79.0035669,29.4276855 C79.4403863,29.0352168 79.6786513,28.5000321 79.6786513,27.9291684 L79.6786513,27.9291684 Z" id="Shape"></path>
                            <path d="M85.1032599,31.1598174 C84.6509597,31.1598174 84.2334519,31.086758 83.815944,30.9041096 C83.4332285,30.7214612 83.1200976,30.5022831 82.841759,30.173516 C82.5634204,29.8447489 82.3546665,29.4794521 82.2154972,29.0776256 C82.0763279,28.6392694 81.9719509,28.1278539 82.0067433,27.652968 C82.0067433,27.1415525 82.0763279,26.630137 82.2154972,26.1552511 C82.3546665,25.716895 82.5634204,25.3515982 82.8765513,24.9863014 C83.1548899,24.6575342 83.5028131,24.4018265 83.8855287,24.2557078 C84.3030365,24.0730594 84.7553367,24 85.2424292,24 C85.6599371,24 86.1122373,24.0730594 86.4949528,24.2557078 C86.8776684,24.4383562 87.1907993,24.6575342 87.4691378,24.9863014 C87.7474764,25.3150685 87.9562303,25.6803653 88.0953996,26.0821918 C88.2345689,26.5205479 88.3389459,27.0319635 88.3041536,27.5068493 C88.3041536,28.1278539 88.1997766,28.7488584 87.9910227,29.2968037 C87.7822687,29.7716895 87.4691378,30.2100457 87.0864223,30.5388128 L89,32 L87.3299685,32 L86.1470296,31.0502283 C85.973068,31.086758 85.8338987,31.1232877 85.6599371,31.1598174 C85.4511832,31.1598174 85.2772215,31.1598174 85.1032599,31.1598174 Z M85.1380523,25.0228311 C84.8597137,25.0228311 84.5813751,25.0958904 84.3030365,25.2054795 C84.0594903,25.3150685 83.815944,25.4977169 83.6419824,25.716895 C83.4680208,25.9726027 83.2940592,26.2283105 83.2244745,26.5205479 C83.1200976,26.8493151 83.0853053,27.2146119 83.0853053,27.5799087 C83.0853053,27.9452055 83.1200976,28.2739726 83.2244745,28.6392694 C83.2940592,28.9315068 83.4332285,29.2237443 83.6419824,29.4429224 C83.9899056,29.8812785 84.5117905,30.173516 85.0684676,30.1369863 C85.3468062,30.1369863 85.6599371,30.0639269 85.9034833,29.9543379 C86.1470296,29.8447489 86.3557835,29.6621005 86.5297451,29.4429224 C86.7037067,29.2237443 86.842876,28.9315068 86.947253,28.6392694 C87.05163,28.2739726 87.0864223,27.9452055 87.0864223,27.5799087 C87.0864223,27.2146119 87.05163,26.8493151 86.947253,26.4840183 C86.8776684,26.1917808 86.7384991,25.8995434 86.5645375,25.6803653 C86.3905758,25.4611872 86.1818219,25.2785388 85.9382757,25.1689498 C85.7295217,25.0958904 85.4163908,25.0228311 85.1380523,25.0228311 Z" id="Shape"></path>
                            <polygon id="Path" points="93 31 89 31 89 24 90.1809524 24 90.1809524 30.0052632 92.9619048 30.0052632"></polygon>
                            <path d="M94.4848485,23.1509434 C94.3636364,23.1509434 94.2424242,23.0754717 94.1515152,23 C94.0606061,22.8867925 94,22.7358491 94,22.5849057 C94,22.4339623 94.0606061,22.2830189 94.1515152,22.1698113 C94.3636364,21.9433962 94.6363636,21.9433962 94.8484848,22.1698113 C94.9393939,22.2830189 95,22.4339623 95,22.5849057 C95,22.7358491 94.9393939,22.8867925 94.8484848,23 C94.7272727,23.1132075 94.6060606,23.1509434 94.4848485,23.1509434 Z M95,31 L94.030303,31 L94.030303,23.8301887 L95,23.8301887 L95,31 Z" id="Shape"></path>
                            <path d="M102,24 L99.5686275,28.4578947 L99.5686275,31 L98.3529412,31 L98.3529412,28.4947368 L96,24.0368421 L97.4117647,24.0368421 L98.8627451,27.0210526 C98.8627451,27.0578947 98.9411765,27.2052632 99.0196078,27.4263158 L99.0196078,27.4263158 C99.0588235,27.2789474 99.1372549,27.1684211 99.1764706,27.0210526 L100.705882,24.0368421 L102,24 Z" id="Path"></path>
                            <path d="M108,24 L105.568627,28.4578947 L105.568627,31 L104.352941,31 L104.352941,28.4947368 L102,24.0368421 L103.411765,24.0368421 L104.862745,27.0210526 C104.862745,27.0578947 104.941176,27.2052632 105.019608,27.4263158 L105.019608,27.4263158 C105.058824,27.2789474 105.137255,27.1684211 105.176471,27.0210526 L106.705882,24.0368421 L108,24 Z" id="Path"></path>
                            <path d="M114,31 L112.615819,31 L111.943503,29.2315789 L108.977401,29.2315789 L108.344633,31 L107,31 L109.80791,24 L111.19209,24 L114,31 Z M111.627119,28.2736842 L110.59887,25.4736842 C110.559322,25.3263158 110.519774,25.1789474 110.519774,25.0315789 L110.519774,25.0315789 C110.480226,25.1789474 110.480226,25.3263158 110.40113,25.4736842 L109.372881,28.2368421 L111.627119,28.2736842 Z" id="Shape"></path>
                            <polygon id="Path" points="117.964286 24.9947368 116.035714 24.9947368 116.035714 31 114.928571 31 114.928571 24.9947368 113 24.9947368 113 24 118 24"></polygon>
                            <polygon id="Path" points="120 30 119.069767 32 118 32 118.697674 30"></polygon>
                            <path d="M129,31 L127.741497,31 L126.721088,29.1210526 C126.653061,28.9736842 126.55102,28.8263158 126.44898,28.6789474 C126.380952,28.5684211 126.278912,28.4578947 126.176871,28.3842105 C126.07483,28.3105263 125.972789,28.2368421 125.870748,28.2 C125.768707,28.1631579 125.632653,28.1631579 125.496599,28.1631579 L125.054422,28.1631579 L125.054422,31 L124,31 L124,24 L126.108844,24 C126.380952,24 126.687075,24.0368421 126.959184,24.1105263 C127.197279,24.1842105 127.435374,24.2947368 127.639456,24.4789474 C127.843537,24.6263158 127.979592,24.8473684 128.081633,25.0684211 C128.183673,25.3263158 128.251701,25.6210526 128.251701,25.8789474 C128.251701,26.1 128.217687,26.3210526 128.14966,26.5421053 C128.081633,26.7263158 127.979592,26.9105263 127.877551,27.0947368 C127.741497,27.2421053 127.605442,27.3894737 127.435374,27.5 C127.265306,27.6105263 127.061224,27.7210526 126.857143,27.7578947 L126.857143,27.7578947 C126.959184,27.8315789 127.061224,27.9052632 127.163265,27.9789474 C127.265306,28.0526316 127.333333,28.1631579 127.401361,28.2368421 C127.469388,28.3473684 127.571429,28.4210526 127.639456,28.5315789 C127.707483,28.6421053 127.809524,28.7894737 127.911565,28.9368421 L129,31 Z M125.088435,24.9578947 L125.088435,27.2052632 L125.972789,27.2052632 C126.142857,27.2052632 126.278912,27.1684211 126.414966,27.1315789 C126.55102,27.0947368 126.687075,26.9842105 126.789116,26.9105263 C126.891156,26.8 126.959184,26.6894737 127.027211,26.5421053 C127.095238,26.3947368 127.129252,26.2105263 127.095238,26.0263158 C127.095238,25.7315789 126.993197,25.4368421 126.789116,25.2526316 C126.55102,25.0315789 126.244898,24.9578947 125.938776,24.9578947 L125.088435,24.9578947 Z" id="Shape"></path>
                            <path d="M136,31 L134.615819,31 L133.943503,29.2315789 L130.977401,29.2315789 L130.344633,31 L129,31 L131.80791,24 L133.19209,24 L136,31 Z M133.627119,28.2736842 L132.59887,25.4736842 C132.559322,25.3263158 132.519774,25.1789474 132.519774,25.0315789 L132.519774,25.0315789 C132.480226,25.1789474 132.480226,25.3263158 132.40113,25.4736842 L131.372881,28.2368421 L133.627119,28.2736842 Z" id="Shape"></path>
                            <path d="M137,31 L137,24.005522 L139.325581,24.005522 C139.906977,23.9687089 140.527132,24.1159611 141.031008,24.4472785 C141.418605,24.7049698 141.651163,25.1467263 141.651163,25.5884828 C141.651163,25.9566132 141.534884,26.3247436 141.302326,26.619248 C141.069767,26.9137523 140.72093,27.1346306 140.333333,27.2450697 L140.333333,27.2450697 C140.79845,27.2818827 141.224806,27.4659479 141.534884,27.7972653 C141.844961,28.1285827 142,28.5335262 142,28.9752827 C142,29.5274783 141.728682,30.0796739 141.263566,30.4109913 C140.72093,30.7791217 140.062016,31 139.403101,30.963187 L137,31 Z M138.20155,24.925848 L138.20155,26.9137523 L138.976744,26.9137523 C139.325581,26.9505653 139.674419,26.8401262 139.984496,26.619248 C140.217054,26.3983697 140.372093,26.1038654 140.333333,25.809361 C140.333333,25.2203524 139.906977,24.925848 139.093023,24.925848 L138.20155,24.925848 Z M138.20155,27.8708914 L138.20155,30.0796739 L139.248062,30.0796739 C139.635659,30.116487 139.984496,30.0060479 140.294574,29.7851696 C140.565891,29.5642913 140.682171,29.269787 140.682171,28.9752827 C140.682171,28.2390218 140.139535,27.9077044 139.093023,27.9077044 L138.20155,27.8708914 Z" id="Shape"></path>
                            <path d="M143.484848,23.1509434 C143.363636,23.1509434 143.242424,23.0754717 143.151515,23 C143.060606,22.8867925 143,22.7358491 143,22.5849057 C143,22.4339623 143.060606,22.2830189 143.151515,22.1698113 C143.363636,21.9433962 143.636364,21.9433962 143.848485,22.1698113 C143.939394,22.2830189 144,22.4339623 144,22.5849057 C144,22.7358491 143.939394,22.8867925 143.848485,23 C143.727273,23.1132075 143.606061,23.1509434 143.484848,23.1509434 Z M144,31 L143.030303,31 L143.030303,23.8301887 L144,23.8301887 L144,31 Z" id="Shape"></path>
                            <polygon id="Path" points="149.964286 24.9947368 148.035714 24.9947368 148.035714 31 146.928571 31 146.928571 24.9947368 145 24.9947368 145 24 150 24"></polygon>
                            <path d="M150,27.001515 L155.686105,27.001515 C155.646618,26.4306513 155.37021,25.8954666 154.896368,25.5029979 C154.422526,25.1105291 153.790737,24.9321342 153.11946,24.9678132 C152.36921,24.9678132 151.61896,25.1462081 151.026658,25.5386768 L151.026658,24.5039864 C151.697934,24.1471967 152.487671,23.9688018 153.277408,24.0044807 C154.304066,23.9688018 155.291237,24.2899126 156.002,24.9321342 C156.712763,25.6100348 157.068144,26.5376882 156.989171,27.4653417 C157.028658,28.3929951 156.673276,29.2849696 156.002,29.9985492 C155.330723,30.6764498 154.383039,31.0332396 153.356381,30.9975606 C152.408697,31.0332396 151.461013,30.6764498 150.86871,29.9985492 C150.276408,29.2849696 150,28.2859582 150,27.001515 Z M155.686105,27.9291684 L151.342553,27.9291684 C151.342553,28.4643531 151.539987,28.9995378 151.895368,29.4276855 C152.290237,29.8201543 152.843053,30.0342282 153.395868,29.9985492 C153.988171,30.0342282 154.580474,29.8201543 154.975342,29.4276855 C155.409697,29.0352168 155.646618,28.5000321 155.686105,27.9291684 L155.686105,27.9291684 Z" id="Shape"></path>
                            <path d="M167,24 L164.6,31 L163.364706,31 L161,24 L162.2,24 L163.858824,29.3052632 C163.929412,29.4894737 163.964706,29.7105263 163.964706,29.8947368 L163.964706,29.8947368 C164,29.6736842 164.035294,29.4894737 164.105882,29.3052632 L165.8,24 L167,24 Z" id="Path"></path>
                            <path d="M167,27.001515 L172.686105,27.001515 C172.646618,26.4306513 172.37021,25.8954666 171.896368,25.5029979 C171.422526,25.1105291 170.790737,24.9321342 170.11946,24.9678132 C169.36921,24.9678132 168.61896,25.1462081 168.026658,25.5386768 L168.026658,24.5039864 C168.697934,24.1471967 169.487671,23.9688018 170.277408,24.0044807 C171.304066,23.9688018 172.291237,24.2899126 173.002,24.9321342 C173.712763,25.6100348 174.068144,26.5376882 173.989171,27.4653417 C174.028658,28.3929951 173.673276,29.2849696 173.002,29.9985492 C172.330723,30.6764498 171.383039,31.0332396 170.356381,30.9975606 C169.408697,31.0332396 168.461013,30.6764498 167.86871,29.9985492 C167.315895,29.2849696 167,28.2859582 167,27.001515 Z M172.686105,27.9291684 L168.342553,27.9291684 C168.342553,28.4643531 168.539987,29.0352168 168.934855,29.4633645 C169.329724,29.8558333 169.882539,30.0699071 170.435355,30.0342282 C171.027658,30.0699071 171.61996,29.8558333 172.014829,29.4633645 C172.449184,29.0352168 172.686105,28.5000321 172.686105,27.9291684 L172.686105,27.9291684 Z" id="Shape"></path>
                            <path d="M183,24 L180.568627,28.4578947 L180.568627,31 L179.352941,31 L179.352941,28.4947368 L177,24.0368421 L178.372549,24.0368421 L179.823529,27.0210526 C179.823529,27.0578947 179.901961,27.2052632 179.980392,27.4263158 L179.980392,27.4263158 C180.019608,27.2789474 180.098039,27.1684211 180.137255,27.0210526 L181.666667,24.0368421 L183,24 Z" id="Path"></path>
                            <path d="M189,28.0124481 C189,29.9917012 188.14966,31 186.44898,31 C184.816327,31 184,30.0290456 184,28.1244813 L184,23.7925311 L185.054422,23.7925311 L185.054422,27.9004149 C185.054422,29.2821577 185.530612,29.9917012 186.517007,29.9917012 C187.469388,29.9917012 187.945578,29.3195021 187.945578,27.9751037 L187.945578,23.7925311 L189,23.7925311 L189,28.0124481 Z M185.530612,23.1576763 C185.394558,23.1576763 185.22449,23.0829876 185.122449,22.9709544 C185.020408,22.8589212 184.952381,22.7095436 184.952381,22.560166 C184.952381,22.4107884 185.020408,22.2614108 185.122449,22.1493776 C185.22449,22.0373444 185.360544,22 185.496599,22 C185.632653,22 185.802721,22.0746888 185.904762,22.1493776 C186.006803,22.2614108 186.07483,22.4107884 186.07483,22.560166 C186.07483,22.7095436 186.006803,22.8589212 185.904762,22.9709544 C185.802721,23.0829876 185.666667,23.120332 185.530612,23.1576763 L185.530612,23.1576763 Z M187.401361,23.1576763 C187.265306,23.1576763 187.129252,23.0829876 187.027211,23.0082988 C186.823129,22.7842324 186.823129,22.4481328 186.993197,22.2240664 C186.993197,22.2240664 186.993197,22.2240664 187.027211,22.186722 C187.129252,22.0746888 187.265306,22.0373444 187.401361,22.0373444 C187.537415,22.0373444 187.707483,22.0746888 187.809524,22.186722 C187.911565,22.2987552 187.979592,22.4481328 187.979592,22.5975104 C187.979592,22.746888 187.911565,22.8962656 187.809524,23.0082988 C187.707483,23.0829876 187.537415,23.120332 187.401361,23.1576763 L187.401361,23.1576763 Z" id="Shape"></path>
                            <path d="M196,31 L194.566434,31 L192.258741,27.8115183 C192.188811,27.7382199 192.153846,27.6649215 192.083916,27.5549738 L192.083916,27.5549738 L192.083916,30.9633508 L191,30.9633508 L191,24 L192.083916,24 L192.083916,27.2617801 L192.083916,27.2617801 C192.118881,27.1884817 192.188811,27.1151832 192.258741,27.0418848 L194.496503,24.0366492 L195.825175,24.0366492 L193.237762,27.3717277 L196,31 Z" id="Path"></path>
                            <path d="M196.05174,30.7131817 L196.05174,29.5659084 C196.174347,29.6734653 196.296955,29.7451699 196.460431,29.8168745 C196.623908,29.888579 196.787385,29.9602836 196.991731,29.9961359 C197.155207,30.0319882 197.359553,30.1036928 197.52303,30.1036928 C197.686506,30.1395451 197.849983,30.1395451 198.01346,30.1395451 C198.422151,30.1753974 198.871712,30.1036928 199.239535,29.888579 C199.48475,29.7451699 199.648226,29.4942039 199.648226,29.2073855 C199.648226,29.0639764 199.607357,28.9205672 199.525619,28.7771581 C199.443881,28.6337489 199.321273,28.5261921 199.157796,28.4544875 C198.99432,28.3469306 198.789974,28.2393737 198.585628,28.1676692 L197.890852,27.8808509 C197.604768,27.773294 197.359553,27.6298848 197.155207,27.522328 C196.950861,27.4147711 196.746516,27.2713619 196.54217,27.0921005 C196.378693,26.9486913 196.215216,26.7694299 196.133478,26.5543162 C196.05174,26.3392024 195.970001,26.1240887 196.010871,25.8731227 C196.010871,25.5863044 196.092609,25.299486 196.256086,25.04852 C196.419562,24.797554 196.623908,24.6182926 196.909992,24.4748834 C197.196076,24.295622 197.482161,24.1880651 197.809114,24.1163605 C198.136067,24.0446559 198.50389,24.0088036 198.871712,24.0088036 C199.48475,23.9729514 200.097787,24.0446559 200.629086,24.2597697 L200.629086,25.3711906 C200.138656,25.0843723 199.525619,24.9409632 198.912581,24.9409632 C198.708236,24.9409632 198.544759,24.9409632 198.340413,24.9768154 C198.176936,25.0126677 197.972591,25.04852 197.849983,25.1202246 C197.686506,25.1919292 197.563899,25.299486 197.482161,25.4070429 C197.400422,25.5145998 197.318684,25.6580089 197.359553,25.8014181 C197.359553,25.9448273 197.400422,26.0882364 197.482161,26.1957933 C197.563899,26.3033501 197.686506,26.410907 197.809114,26.5184639 C197.972591,26.6260207 198.136067,26.6977253 198.299544,26.8052822 C198.50389,26.8769868 198.749105,26.9845436 198.99432,27.0921005 C199.239535,27.1996574 199.525619,27.3072142 199.770834,27.4864757 C200.016049,27.6298848 200.220395,27.773294 200.383871,27.9167031 C200.547348,28.0601123 200.710825,28.275226 200.833432,28.4544875 C200.95604,28.6696012 200.996909,28.9205672 200.996909,29.135681 C201.037778,29.7093176 200.669955,30.2829542 200.097787,30.5697725 C199.811703,30.7131817 199.48475,30.8207386 199.157796,30.8924431 C198.789974,30.9641477 198.422151,31 198.054329,31 C197.890852,31 197.727376,31 197.563899,30.9641477 C197.359553,30.9641477 197.196076,30.9282954 196.991731,30.8924431 C196.787385,30.8565908 196.623908,30.8207386 196.419562,30.7848863 C196.337824,30.8207386 196.174347,30.7848863 196.05174,30.7131817 Z" id="Path"></path>
                            <path d="M201,27.001515 L206.686105,27.001515 C206.646618,26.4306513 206.37021,25.8954666 205.896368,25.5029979 C205.422526,25.1105291 204.790737,24.9321342 204.11946,24.9678132 C203.36921,24.9678132 202.61896,25.1462081 202.026658,25.5386768 L202.026658,24.5039864 C202.697934,24.1471967 203.487671,23.9688018 204.277408,24.0044807 C205.304066,23.9688018 206.291237,24.2899126 207.002,24.9321342 C207.712763,25.6100348 208.068144,26.5376882 207.989171,27.4653417 C208.028658,28.3929951 207.673276,29.2849696 207.002,29.9985492 C206.330723,30.6764498 205.383039,31.0332396 204.356381,30.9975606 C203.408697,31.0332396 202.461013,30.6764498 201.86871,29.9985492 C201.276408,29.2849696 201,28.2859582 201,27.001515 Z M206.686105,27.9291684 L202.342553,27.9291684 C202.342553,28.4643531 202.539987,29.0352168 202.934855,29.4633645 C203.329724,29.8558333 203.882539,30.0699071 204.435355,30.0342282 C205.027658,30.0699071 205.61996,29.8558333 206.014829,29.4633645 C206.409697,29.0352168 206.686105,28.5000321 206.686105,27.9291684 L206.686105,27.9291684 Z" id="Shape"></path>
                            <path d="M215,31 L213.566434,31 L211.258741,27.8115183 C211.188811,27.7382199 211.153846,27.6649215 211.083916,27.5549738 L211.083916,27.5549738 L211.083916,30.9633508 L210,30.9633508 L210,24 L211.083916,24 L211.083916,27.2617801 L211.083916,27.2617801 C211.118881,27.1884817 211.188811,27.1151832 211.258741,27.0418848 L213.461538,24.0366492 L214.79021,24.0366492 L212.202797,27.3717277 L215,31 Z" id="Path"></path>
                            <polygon id="Path" points="70.9642857 37.9947368 69.0357143 37.9947368 69.0357143 44 67.9285714 44 67.9285714 37.9947368 66 37.9947368 66 37 71 37"></polygon>
                            <polygon id="Path" points="76 44 72 44 72 37 75.8490566 37 75.8490566 38 73.1698113 38 73.1698113 40 75.6226415 40 75.6226415 40.962963 73.1698113 40.962963 73.1698113 43.037037 76 43.037037"></polygon>
                            <path d="M83,44 L81.601227,44 L80.1656442,41.4074074 C80.1288344,41.2962963 80.0552147,41.1851852 80.0184049,41.0740741 L80.0184049,41.0740741 C79.9815951,41.1481481 79.9447853,41.2592593 79.8711656,41.4074074 L78.398773,44 L77,44 L79.2822086,40.4814815 L77.1840491,37 L78.5828221,37 L79.8343558,39.3703704 C79.9079755,39.5185185 79.9815951,39.6666667 80.0552147,39.8518519 L80.0552147,39.8518519 C80.1656442,39.6296296 80.2392638,39.4814815 80.3128834,39.3703704 L81.601227,37.037037 L82.8895706,37.037037 L80.7546012,40.5185185 L83,44 Z" id="Path"></path>
                            <path d="M90,44 L88.725,44 L85.35,38.8518519 C85.275,38.7407407 85.2,38.5925926 85.125,38.4444444 L85.0875,38.4444444 C85.125,38.7777778 85.125,39.0740741 85.125,39.4074074 L85.125,44 L84,44 L84,37 L85.3875,37 L88.6125,42.037037 C88.7625,42.2592593 88.8375,42.4074074 88.875,42.4814815 L88.875,42.4814815 C88.8375,42.1851852 88.8,41.8518519 88.8375,41.5555556 L88.8375,37 L89.9625,37 L90,44 Z" id="Path"></path>
                            <path d="M94.5154441,43.9975566 C93.5504608,44.0332447 92.6240767,43.6763631 91.967888,43.0339762 C91.3116994,42.3559011 90.9643053,41.463697 91.0029047,40.5714929 C90.9643053,39.6079125 91.3116994,38.6800203 91.967888,37.966257 C92.6626761,37.2881819 93.6276594,36.9669884 94.5926428,37.0026766 C95.5190268,36.9669884 96.4454109,37.3238701 97.0630002,37.9305689 C97.7191889,38.6086439 98.0665829,39.500848 97.9893842,40.3930521 C98.0279836,41.3566325 97.6805896,42.2845247 97.0244009,42.998288 C96.4068115,43.6763631 95.4804275,44.0332447 94.5154441,43.9975566 Z M94.5540435,37.966257 C93.9364541,37.966257 93.3188648,38.2160742 92.9328714,38.6443321 C92.1222854,39.7506652 92.1222854,41.1781917 92.9328714,42.2845247 C93.3188648,42.7484709 93.8978548,42.998288 94.5154441,42.9625998 C95.1330335,42.998288 95.7506228,42.7484709 96.1752155,42.3202129 C96.5998082,41.7848905 96.8314042,41.1425035 96.7928049,40.5001166 C96.8314042,39.8220415 96.6384075,39.1796546 96.2138149,38.6443321 C95.8278215,38.180386 95.2102322,37.9305689 94.5540435,37.966257 L94.5540435,37.966257 Z" id="Shape"></path>
                            <polygon id="Path" points="103 44 99 44 99 37 100.180952 37 100.180952 43.037037 102.961905 43.037037"></polygon>
                            <path d="M106.515444,43.9975566 C105.550461,44.0332447 104.624077,43.6763631 103.967888,43.0339762 C103.311699,42.3559011 102.964305,41.463697 103.002905,40.5714929 C102.964305,39.6079125 103.311699,38.6800203 103.967888,37.966257 C104.662676,37.2881819 105.627659,36.9669884 106.592643,37.0026766 C107.519027,36.9669884 108.445411,37.3238701 109.063,37.9305689 C109.719189,38.6086439 110.066583,39.500848 109.989384,40.3930521 C110.027984,41.3566325 109.68059,42.2845247 109.024401,42.998288 C108.445411,43.6763631 107.480427,44.0332447 106.515444,43.9975566 Z M106.592643,37.966257 C105.975053,37.966257 105.357464,38.2160742 104.971471,38.6443321 C104.160885,39.7506652 104.160885,41.1781917 104.971471,42.2845247 C105.357464,42.7484709 105.936454,42.998288 106.554043,42.9625998 C107.171633,42.998288 107.789222,42.7484709 108.213815,42.3202129 C108.638408,41.7848905 108.870004,41.1425035 108.831404,40.5001166 C108.870004,39.8220415 108.677007,39.1796546 108.252414,38.6443321 C107.827822,38.180386 107.210232,37.9305689 106.592643,37.966257 L106.592643,37.966257 Z" id="Shape"></path>
                            <path d="M117,43.4236189 C116.250352,43.818029 115.388257,43.9973063 114.526162,43.9973063 C113.589102,44.0331618 112.652042,43.7104626 111.977358,43.0650643 C111.302675,42.3838105 110.965333,41.4874239 111.002816,40.5910373 C110.965333,39.6229398 111.340157,38.6906978 112.089806,38.009444 C112.801971,37.3281902 113.776514,36.9696356 114.788538,37.005491 C115.463222,36.9696356 116.137905,37.1130574 116.775106,37.3281902 L116.775106,38.475565 C116.21287,38.1170104 115.500704,37.9377331 114.826021,37.9377331 C114.113855,37.9018776 113.439172,38.1887213 112.951901,38.6548423 C112.46463,39.1568188 112.202253,39.8022172 112.239735,40.5193264 C112.202253,41.2005802 112.427147,41.8459786 112.876936,42.347955 C113.326725,42.8140761 113.926443,43.0650643 114.563644,43.0292088 C115.013433,43.0292088 115.425739,42.9574979 115.838046,42.7423651 L115.838046,41.1288693 L114.33875,41.1288693 L114.33875,40.1966273 L117,40.1966273 L117,43.4236189 Z" id="Path"></path>
                            <path d="M118.484848,36.1606765 C118.363636,36.1606765 118.242424,36.0845666 118.151515,36.0084567 C118.060606,35.8942918 118,35.7420719 118,35.589852 C118,35.4376321 118.060606,35.2854123 118.151515,35.1712474 C118.363636,34.9429175 118.636364,34.9429175 118.848485,35.1712474 C118.939394,35.2854123 119,35.4376321 119,35.589852 C119,35.7420719 118.939394,35.8942918 118.848485,36.0084567 C118.727273,36.0845666 118.606061,36.1606765 118.484848,36.1606765 Z M118.969697,44 L118,44 L118,36.769556 L118.969697,36.769556 L118.969697,44 Z" id="Shape"></path>
                            <path d="M126,37 L123.568627,41.4578947 L123.568627,44 L122.352941,44 L122.352941,41.4947368 L120,37.0368421 L121.411765,37.0368421 L122.862745,40.0210526 C122.862745,40.0578947 122.941176,40.2052632 123.019608,40.4263158 L123.019608,40.4263158 C123.058824,40.2789474 123.137255,40.1684211 123.176471,40.0210526 L124.705882,37.0368421 L126,37 Z" id="Path"></path>
                            <path d="M131,44 L129.806818,44 L129.227273,42.2222222 L126.704545,42.2222222 L126.159091,44 L125,44 L127.420455,37 L128.613636,37 L131,44 Z M128.954545,41.2592593 L128.068182,38.4814815 C128.034091,38.3333333 128,38.1851852 128,38.037037 L128,38.037037 C127.965909,38.1851852 127.965909,38.3333333 127.897727,38.4814815 L127.011364,41.2592593 L128.954545,41.2592593 Z" id="Shape"></path>
                            <polygon id="Path" points="137 44 133 44 133 37 134.180952 37 134.180952 43.037037 136.961905 43.037037"></polygon>
                            <path d="M144,44 L142.615819,44 L141.943503,42.2222222 L139.016949,42.2222222 L138.384181,44 L137,44 L139.80791,37 L141.19209,37 L144,44 Z M141.627119,41.2592593 L140.59887,38.4444444 C140.559322,38.2962963 140.519774,38.1481481 140.519774,38 L140.519774,38 C140.480226,38.1481481 140.480226,38.2962963 140.40113,38.4444444 L139.372881,41.2222222 L141.627119,41.2592593 Z" id="Shape"></path>
                            <path d="M150,44 L148.741497,44 L147.721088,42.1111111 C147.653061,41.962963 147.55102,41.8148148 147.44898,41.6666667 C147.380952,41.5555556 147.278912,41.4444444 147.176871,41.3703704 C147.07483,41.2962963 146.972789,41.2222222 146.870748,41.1851852 C146.768707,41.1481481 146.632653,41.1481481 146.496599,41.1481481 L146.054422,41.1481481 L146.054422,44 L145,44 L145,37 L147.108844,37 C147.380952,37 147.687075,37.037037 147.959184,37.1111111 C148.197279,37.1851852 148.435374,37.2962963 148.639456,37.4814815 C148.843537,37.6296296 148.979592,37.8518519 149.081633,38.0740741 C149.183673,38.3333333 149.251701,38.6296296 149.251701,38.8888889 C149.251701,39.1111111 149.217687,39.3333333 149.14966,39.5555556 C149.081633,39.7407407 148.979592,39.9259259 148.877551,40.1111111 C148.741497,40.2592593 148.605442,40.4074074 148.435374,40.5185185 C148.265306,40.6296296 148.061224,40.7407407 147.857143,40.7777778 L147.857143,40.7777778 C147.959184,40.8518519 148.061224,40.9259259 148.163265,41 C148.265306,41.0740741 148.333333,41.1851852 148.401361,41.2592593 C148.469388,41.3703704 148.571429,41.4444444 148.639456,41.5555556 C148.707483,41.6666667 148.809524,41.8148148 148.911565,41.962963 L150,44 Z M146.088435,37.9259259 L146.088435,40.1851852 L146.972789,40.1851852 C147.142857,40.1851852 147.278912,40.1481481 147.414966,40.1111111 C147.55102,40.0740741 147.687075,39.962963 147.789116,39.8888889 C147.891156,39.7777778 147.959184,39.6666667 148.027211,39.5185185 C148.095238,39.3703704 148.129252,39.1851852 148.095238,39 C148.095238,38.7037037 147.993197,38.4074074 147.789116,38.2222222 C147.55102,38 147.244898,37.9259259 146.938776,37.9259259 L146.088435,37.9259259 Z" id="Shape"></path>
                            <path d="M159,44 L157.725,44 L154.35,38.8518519 C154.275,38.7407407 154.2,38.5925926 154.125,38.4444444 L154.0875,38.4444444 C154.125,38.7777778 154.125,39.0740741 154.125,39.4074074 L154.125,44 L153,44 L153,37 L154.3875,37 L157.65,42.037037 C157.8,42.2592593 157.875,42.4074074 157.9125,42.4814815 L157.9125,42.4814815 C157.875,42.1851852 157.8375,41.8518519 157.875,41.5555556 L157.875,37 L159,37 L159,44 Z" id="Path"></path>
                            <path d="M167,44 L165.615819,44 L164.943503,42.2222222 L161.977401,42.2222222 L161.344633,44 L160,44 L162.80791,37 L164.19209,37 L167,44 Z M164.627119,41.2592593 L163.59887,38.4814815 C163.559322,38.3333333 163.519774,38.1851852 163.519774,38.037037 L163.519774,38.037037 C163.480226,38.1851852 163.480226,38.3333333 163.40113,38.4814815 L162.372881,41.2592593 L164.627119,41.2592593 Z" id="Shape"></path>
                            <polygon id="Path" points="172 37.5185185 168.486486 43.037037 171.932432 43.037037 171.932432 44 167 44 167 43.4814815 170.513514 38 167.27027 38 167.27027 37 172 37"></polygon>
                            <path d="M174.484848,36.1606765 C174.363636,36.1606765 174.242424,36.0845666 174.151515,36.0084567 C174.060606,35.8942918 174,35.7420719 174,35.589852 C174,35.4376321 174.060606,35.2854123 174.151515,35.1712474 C174.363636,34.9429175 174.636364,34.9429175 174.848485,35.1712474 C174.939394,35.2854123 175,35.4376321 175,35.589852 C175,35.7420719 174.939394,35.8942918 174.848485,36.0084567 C174.727273,36.0845666 174.606061,36.1606765 174.484848,36.1606765 Z M174.969697,44 L174,44 L174,36.807611 L174.969697,36.807611 L174.969697,44 Z" id="Shape"></path>
                            <path d="M182,44 L180.741497,44 L179.721088,42.1111111 C179.653061,41.962963 179.55102,41.8148148 179.44898,41.6666667 C179.380952,41.5555556 179.278912,41.4444444 179.176871,41.3703704 C179.07483,41.2962963 178.972789,41.2222222 178.870748,41.1851852 C178.768707,41.1481481 178.632653,41.1481481 178.496599,41.1481481 L178.054422,41.1481481 L178.054422,44 L177,44 L177,37 L179.108844,37 C179.380952,37 179.687075,37.037037 179.959184,37.1111111 C180.197279,37.1851852 180.435374,37.2962963 180.639456,37.4814815 C180.843537,37.6296296 180.979592,37.8518519 181.081633,38.0740741 C181.183673,38.3333333 181.251701,38.6296296 181.251701,38.8888889 C181.251701,39.1111111 181.217687,39.3333333 181.14966,39.5555556 C181.081633,39.7407407 180.979592,39.9259259 180.877551,40.1111111 C180.741497,40.2592593 180.605442,40.4074074 180.435374,40.5185185 C180.265306,40.6296296 180.061224,40.7407407 179.857143,40.7777778 L179.857143,40.7777778 C179.959184,40.8518519 180.061224,40.9259259 180.163265,41 C180.265306,41.0740741 180.333333,41.1851852 180.401361,41.2592593 C180.469388,41.3703704 180.571429,41.4444444 180.639456,41.5555556 C180.707483,41.6666667 180.809524,41.8148148 180.911565,41.962963 L182,44 Z M178.088435,37.9259259 L178.088435,40.1851852 L178.972789,40.1851852 C179.142857,40.1851852 179.278912,40.1481481 179.414966,40.1111111 C179.55102,40.0740741 179.687075,39.962963 179.789116,39.8888889 C179.891156,39.7777778 179.959184,39.6666667 180.027211,39.5185185 C180.095238,39.3703704 180.129252,39.1851852 180.095238,39 C180.095238,38.7037037 179.993197,38.4074074 179.789116,38.2222222 C179.55102,38 179.244898,37.9259259 178.938776,37.9259259 L178.088435,37.9259259 Z" id="Shape"></path>
                            <polygon id="Path" points="187 44 183 44 183 37 184.180952 37 184.180952 43.037037 186.961905 43.037037 186.961905 44"></polygon>
                            <path d="M188.484848,36.1440678 C188.363636,36.1440678 188.242424,36.0677966 188.151515,35.9915254 C188.060606,35.8771186 188,35.7245763 188,35.5720339 C188,35.4194915 188.060606,35.2669492 188.151515,35.1525424 C188.242424,35.0381356 188.363636,35 188.484848,35 C188.606061,35 188.727273,35.0381356 188.848485,35.1525424 C188.939394,35.2669492 189,35.4194915 189,35.5720339 C189,35.7245763 188.939394,35.8771186 188.848485,35.9915254 C188.757576,36.0677966 188.606061,36.1440678 188.484848,36.1440678 Z M189,44 L188.030303,44 L188.030303,36.7923729 L189,36.7923729 L189,44 Z" id="Shape"></path>
                            <path d="M196,37 L193.568627,41.4578947 L193.568627,44 L192.352941,44 L192.352941,41.4947368 L190,37.0368421 L191.372549,37.0368421 L192.823529,40.0210526 C192.823529,40.0578947 192.901961,40.2052632 192.980392,40.4263158 L192.980392,40.4263158 C193.019608,40.2789474 193.098039,40.1684211 193.137255,40.0210526 L194.666667,37.0368421 L196,37 Z" id="Path"></path>
                            <path d="M197.484848,36.1606765 C197.363636,36.1606765 197.242424,36.0845666 197.151515,36.0084567 C197.060606,35.8942918 197,35.7420719 197,35.589852 C197,35.4376321 197.060606,35.2854123 197.151515,35.1712474 C197.363636,34.9429175 197.636364,34.9429175 197.848485,35.1712474 C197.939394,35.2854123 198,35.4376321 198,35.589852 C198,35.7420719 197.939394,35.8942918 197.848485,36.0084567 C197.757576,36.0845666 197.606061,36.1606765 197.484848,36.1606765 Z M198,44 L197.030303,44 L197.030303,36.769556 L198,36.769556 L198,44 Z" id="Shape"></path>
                            <path d="M48.7913959,34.1473974 C47.900838,33.7766379 46.8989603,34.1103214 46.3794682,34.8889162 L42.1864247,33.146347 C42.1864247,33.109271 42.1864247,33.109271 42.1864247,33.0721951 C42.1864247,32.7385116 42.0379984,32.4419041 41.7782523,32.2565244 C42.8914497,28.9196897 42.8172365,25.2862476 41.5556128,22.0235648 L46.3794682,20.021464 C46.9731735,20.9483625 48.160584,21.2078941 49.0882485,20.6146791 C50.015913,20.021464 50.2756591,18.8350339 49.6819538,17.9081354 C49.0882485,16.9812369 47.900838,16.7217053 46.9731735,17.3149204 C46.2681485,17.7598317 45.9341892,18.5755024 46.1197221,19.391173 L41.2958668,21.3932738 C40.4053089,19.428249 39.1436852,17.6486038 37.5109957,16.2026422 C37.6965286,15.683579 37.4367825,15.090364 36.9172904,14.9049843 C36.6204377,14.7937564 36.2864785,14.8308324 35.9896259,15.0162121 C35.2474943,14.4971489 34.4311495,14.0522376 33.5776982,13.6814782 L35.5814535,8.86160596 C36.6575443,9.0840616 37.6965286,8.41669467 37.919168,7.37856834 C38.1418075,6.30336607 37.4738891,5.26523974 36.4349048,5.04278409 C35.358814,4.82032845 34.3198298,5.48769538 34.0971903,6.52582171 C33.9116574,7.3414924 34.2456166,8.15716309 34.9506417,8.60207438 L32.9468864,13.4219466 C29.7928271,12.1984406 26.3419152,12.0501368 23.1507493,13.0511872 C22.8167901,12.5321241 22.2230848,12.2725925 21.6293795,12.3838203 L20.0709032,8.63915032 C20.9985677,8.04593527 21.2583137,6.82242923 20.6646085,5.93260666 C20.0709032,5.00570815 18.8463861,4.74617657 17.9558282,5.33939162 C17.0281637,5.93260666 16.7684176,7.1561127 17.3621229,8.04593527 C17.8074018,8.75037814 18.6237466,9.0840616 19.4400913,8.8986819 L20.9985677,12.6433519 C20.5161822,12.9770354 20.2564361,13.6073263 20.4048624,14.2005414 C17.436336,15.7948068 15.0615149,18.3159708 13.7256781,21.3932738 L8.90182271,19.391173 C9.12446219,18.3159708 8.45654376,17.2778444 7.38045295,17.0553888 C6.30436213,16.8329332 5.2653779,17.5003001 5.04273843,18.5755024 C4.82009895,19.6507046 5.48801738,20.688831 6.56410819,20.9112866 C7.38045295,21.0966663 8.1967977,20.7259069 8.64207666,20.05854 L13.465932,22.0606408 C12.8351202,23.6549062 12.5011609,25.3603995 12.4640544,27.1029687 C12.055882,27.2883484 11.8703491,27.7703356 12.055882,28.2152469 C12.1300951,28.4006266 12.315628,28.5860063 12.5011609,28.6601582 C12.6124807,30.1431958 12.9464399,31.5891575 13.465932,32.9980432 L8.64207666,35.000144 C8.04837138,34.0732455 6.86096083,33.8137139 5.93329634,34.4069289 C5.00563185,35.000144 4.74588579,36.1865741 5.33959106,37.1134726 C5.93329634,38.0403711 7.12070689,38.2999027 8.04837138,37.7066876 C8.75339639,37.2617764 9.08735561,36.4461057 8.90182271,35.630435 L13.7256781,33.6283342 C14.2451702,34.8518402 14.9501952,35.9641184 15.76654,37.0022448 C15.6552202,37.1505485 15.6181136,37.3359282 15.6181136,37.5213079 C15.6181136,38.077447 16.0633926,38.5594343 16.6570979,38.5594343 C16.8055242,38.5594343 16.9539505,38.5223583 17.1023768,38.4482064 C18.3640005,39.6346365 19.8111571,40.598611 21.4067401,41.3030539 L19.4029848,46.1229261 C18.326894,45.9004705 17.2879097,46.5678374 17.0652702,47.6059637 C16.8426308,48.681166 17.5105492,49.7192923 18.5495334,49.941748 C19.6256242,50.1642036 20.6646085,49.4968367 20.887248,48.4587104 C21.0727809,47.6430397 20.7388216,46.827369 20.0337966,46.3824577 L22.0375519,41.5625854 C25.5255704,42.9343952 29.4217613,42.9343952 32.9468864,41.5625854 L34.9506417,46.3824577 C34.0229772,46.9756728 33.7632311,48.1991788 34.3569364,49.0890014 C34.9506417,50.0158999 36.1751588,50.2754315 37.0657167,49.6822164 C37.9933812,49.0890014 38.2531272,47.8654953 37.659422,46.9756728 C37.214143,46.2712299 36.3977983,45.9375464 35.5814535,46.1229261 L33.5776982,41.3030539 C36.8059706,39.8941681 39.4405378,37.3730042 40.9990141,34.2215492 C41.0361207,34.2215492 41.0732273,34.2215492 41.1103339,34.2215492 C41.4071865,34.2215492 41.7040392,34.0732455 41.9266786,33.8507898 L46.1197221,35.593359 C45.8970827,36.6685613 46.5650011,37.7066876 47.6039853,37.9291433 C48.6800761,38.1515989 49.7190604,37.484232 49.9416998,36.4461057 C50.1272327,35.4821312 49.6448472,34.5181568 48.7913959,34.1473974 L48.7913959,34.1473974 Z M22.0746585,15.3498955 L22.1117651,15.3498955 L24.8947586,22.0977167 L22.0004453,23.6919821 C21.8149124,23.5066024 21.592273,23.3582987 21.3325269,23.2470709 L22.0746585,15.3498955 Z M26.8614073,28.1040191 L26.3048086,29.401677 L25.5255704,28.6601582 L26.8614073,28.1040191 Z M24.9689717,28.141095 L22.4457243,25.7682348 L26.6016612,27.4737281 L24.9689717,28.141095 Z M27.4922191,28.3635506 L28.9764823,31.885765 L26.8614073,29.8836642 L27.4922191,28.3635506 Z M28.5683099,32.516056 C28.382777,32.8497394 28.3085639,33.2204988 28.382777,33.5912582 L24.6721191,35.1855237 L26.5645546,30.625183 L28.5683099,32.516056 Z M29.9041468,31.7374612 C29.8299337,31.7374612 29.7186139,31.7374612 29.6444008,31.7745372 L28.123031,28.1040191 L31.4255166,29.4758289 L30.238106,31.7745372 C30.1638929,31.7374612 30.0154666,31.7374612 29.9041468,31.7374612 L29.9041468,31.7374612 Z M28.4198836,27.4737281 L33.5405916,25.3603995 L33.5405916,25.3603995 L31.7594758,28.8455379 L28.4198836,27.4737281 Z M33.6890179,26.5839055 L33.3179521,29.5499807 L32.3902877,29.1792213 L33.6890179,26.5839055 Z M34.5053627,25.657007 L34.6166824,25.619931 L39.9971365,32.2565244 L34.0229772,29.7724364 L34.5053627,25.657007 Z M33.243739,24.6930325 L28.123031,26.8063611 L30.6462784,20.7629828 C30.943131,20.8371347 31.2028771,20.8000588 31.4997297,20.688831 L33.503485,23.9885897 C33.3550587,24.1739694 33.2808456,24.396425 33.2808456,24.6559566 C33.2808456,24.6559566 33.2808456,24.6930325 33.243739,24.6930325 L33.243739,24.6930325 Z M29.97836,20.5034513 L27.4551126,26.5468296 L25.7482099,22.3943242 L29.6815073,20.2439197 C29.7928271,20.3551475 29.8670402,20.4292994 29.97836,20.5034513 Z M26.8243007,26.8063611 L22.3344046,24.9525641 C22.3715111,24.7301085 22.3715111,24.5076528 22.297298,24.2851972 L25.117398,22.7280077 L26.8243007,26.8063611 Z M20.8130348,26.250222 L20.9243545,26.250222 L21.852019,29.4387529 L19.3287716,30.4768792 L20.7017151,26.250222 C20.7388216,26.250222 20.7759282,26.250222 20.8130348,26.250222 L20.8130348,26.250222 Z M21.5551664,26.0648423 C21.592273,26.0648423 21.6293795,26.0277664 21.6664861,25.9906905 L24.2268401,28.4006266 L22.4457243,29.1421454 L21.5551664,26.0648423 Z M24.7834388,28.9567657 L26.0079559,30.1061198 L24.0784138,34.7776883 L22.6683638,29.8465883 L24.7834388,28.9567657 Z M28.6425231,34.1844733 C28.9764823,34.6664605 29.5701876,34.8889162 30.1267863,34.7776883 L31.7965824,38.7818899 L24.8947586,35.8158147 L28.6425231,34.1844733 Z M30.7947047,34.5181568 C31.1286639,34.2957011 31.3141968,33.9620177 31.4255166,33.5912582 L32.8355666,33.5541823 L32.2789679,38.114523 L30.7947047,34.5181568 Z M31.38841,32.8868154 C31.3141968,32.5531319 31.1286639,32.2936003 30.8689179,32.0711447 L32.0563284,29.7353604 L33.2066324,30.2173477 L32.8726732,32.8868154 L31.38841,32.8868154 Z M33.9116574,30.5139552 L39.4405378,32.8126635 L33.6519114,32.8868154 L33.9116574,30.5139552 Z M35.1732811,25.2120957 C35.2846009,25.0637919 35.3217075,24.8784122 35.3217075,24.6559566 C35.3217075,24.6559566 35.3217075,24.6188807 35.3217075,24.6188807 L38.1789141,23.4324506 L40.3682023,31.6262334 L35.1732811,25.2120957 Z M35.0619614,23.9515137 C34.9877482,23.8773618 34.9506417,23.8402859 34.8764285,23.766134 L36.5462246,17.2036926 L37.9933812,22.7280077 L35.0619614,23.9515137 Z M35.9154127,16.6104775 L35.9896259,16.6475535 L34.2085101,23.6178303 C34.1714035,23.6178303 34.1342969,23.6178303 34.0971903,23.6178303 L32.0563284,20.3180716 C32.538714,19.8731603 32.6871403,19.2057933 32.4645008,18.6125783 L35.9154127,16.6104775 Z M29.3475481,19.6136287 L25.4884638,21.7269573 L22.7425769,15.053288 C22.8167901,14.9791361 22.8910033,14.9420602 22.9652164,14.8679083 L29.3846547,18.6125783 C29.273335,18.9462618 29.273335,19.2799452 29.3475481,19.6136287 L29.3475481,19.6136287 Z M21.3325269,15.2757437 L21.3696335,15.2757437 L20.6275019,23.172919 C20.2193295,23.2470709 19.8111571,23.4695265 19.5885177,23.80321 L16.5828847,22.542628 L21.3325269,15.2757437 Z M19.3287716,24.4705769 C19.291665,24.6188807 19.291665,24.8042604 19.3287716,24.9525641 L13.6143583,27.1771205 L16.2118189,23.2099949 L19.3287716,24.4705769 Z M13.5772518,27.8815634 L19.5514111,25.5828551 C19.6627308,25.7682348 19.8482637,25.9165386 20.0337966,26.0277664 L18.4382137,30.8476387 L17.8074018,31.1071702 L13.5030386,28.1040191 C13.5401452,28.0298672 13.5772518,27.9557153 13.5772518,27.8815634 L13.5772518,27.8815634 Z M19.031919,31.3667018 L22.0375519,30.1061198 L23.447602,35.000144 L18.8463861,31.8116131 L19.031919,31.3667018 Z M23.1878559,35.6675109 L17.5476558,36.9280929 C17.4734426,36.8168651 17.3992295,36.7427132 17.2879097,36.6685613 L18.6608532,32.516056 L23.1878559,35.6675109 Z M23.3733888,36.3348778 L23.4104954,36.4090297 L22.7796835,37.8920673 L18.6608532,37.3730042 L23.3733888,36.3348778 Z M24.0413072,36.6685613 C24.2268401,36.6685613 24.412373,36.5944094 24.5607993,36.4461057 L30.0525731,38.8189659 L23.5218151,38.0032952 L24.0413072,36.6685613 Z M32.9097798,38.707738 L32.9097798,38.707738 L33.5405916,33.5912582 L40.0342431,33.4800304 L32.9097798,38.707738 Z M41.1474405,31.9599169 L38.8097259,23.172919 L40.8876944,22.3201723 C42.1122115,25.3974754 42.1864247,28.8084619 41.1474405,31.9599169 L41.1474405,31.9599169 Z M40.6279483,21.6528054 L38.6612996,22.4684761 L37.1770364,16.8329332 C38.6612996,18.167667 39.8487102,19.8360843 40.6279483,21.6528054 L40.6279483,21.6528054 Z M35.5814535,15.5723512 C35.5443469,15.7206549 35.5443469,15.8689587 35.5443469,16.0172625 L32.1305416,18.0193633 C32.0563284,17.9452114 31.9450087,17.8339836 31.8707955,17.7969076 L33.3179521,14.3117692 C34.0971903,14.6825286 34.8764285,15.090364 35.5814535,15.5723512 Z M27.4922191,13.0882632 C29.273335,13.0882632 31.0173442,13.4219466 32.6871403,14.0522376 L31.2399837,17.537376 C30.683385,17.4261482 30.0896797,17.6115279 29.7186139,18.0564392 L23.2991756,14.3117692 C23.3733888,14.1263895 23.3733888,13.9039339 23.3362822,13.6814782 C24.7092257,13.2736429 26.0821691,13.0882632 27.4922191,13.0882632 L27.4922191,13.0882632 Z M20.6646085,14.7937564 C20.7017151,14.8308324 20.7388216,14.8679083 20.7388216,14.9049843 L15.9149663,22.3201723 L14.3193833,21.6528054 C15.6181136,18.7238061 17.8445084,16.31387 20.6646085,14.7937564 L20.6646085,14.7937564 Z M15.5439005,22.9133874 L13.0948662,26.6209814 C13.1690794,25.1379438 13.5030386,23.6919821 14.0596373,22.2830964 L15.5439005,22.9133874 Z M13.1319728,28.6601582 L17.0652702,31.4037778 L14.0596373,32.6643597 C13.5772518,31.3667018 13.2432925,30.031968 13.1319728,28.6601582 L13.1319728,28.6601582 Z M17.7331887,31.885765 L18.0300413,32.0711447 L16.6199913,36.4090297 C16.5086715,36.4090297 16.3973518,36.4461057 16.2860321,36.4831816 C15.5067939,35.5192071 14.8388755,34.4440049 14.3564899,33.2946507 L17.7331887,31.885765 Z M17.5847624,37.9291433 L22.5199375,38.5594343 L21.6664861,40.6356869 C20.1451164,39.96832 18.7721729,39.0414215 17.5847624,37.9291433 L17.5847624,37.9291433 Z M22.297298,40.8952185 L23.2249625,38.6706621 L31.6110495,39.7458644 C31.7223692,40.1166238 32.0563284,40.4132313 32.4645008,40.4132313 L32.6871403,40.9322945 C29.3475481,42.1928764 25.6368902,42.1928764 22.297298,40.8952185 L22.297298,40.8952185 Z M33.3179521,40.6356869 L33.0953127,40.1166238 C33.3179521,39.8941681 33.3921653,39.5604847 33.3179521,39.2638771 L40.1826694,34.1844733 C38.6984062,37.0393207 36.2864785,39.3009531 33.3179521,40.6356869 L33.3179521,40.6356869 Z" id="Shape"></path>
                            <path d="M22.1785714,4.99175593 C22.3928571,5.31583438 22.5357143,5.63991283 22.6071429,6 L26.3928571,3.19132008 C27.0714286,2.68719804 27.9642857,2.68719804 28.6071429,3.19132008 L32.3928571,6 C32.6071429,5.09978208 33.1785714,4.3075903 34,3.83947698 L30.1428571,0.95877963 C28.3928571,-0.337534179 26.5357143,-0.301525462 24.8571429,0.95877963 L21,3.83947698 C21.5,4.091538 21.8928571,4.48763389 22.1785714,4.99175593 Z" id="Path"></path>
                            <path d="M32.8214286,50.0082441 C32.6071429,49.6841656 32.4642857,49.3600872 32.3928571,49 L28.6071429,51.8086799 C27.9285714,52.312802 27.0357143,52.312802 26.3928571,51.8086799 L22.6071429,49 C22.3928571,49.9002179 21.8214286,50.6924097 21,51.160523 L24.8571429,54.0412204 C26.6071429,55.3375342 28.4642857,55.3015255 30.1428571,54.0412204 L34,51.160523 C33.5357143,50.908462 33.1071429,50.5123661 32.8214286,50.0082441 Z" id="Path"></path>
                            <path d="M7.71641791,15.5895522 C8.08955224,15.6641791 8.42537313,15.8134328 8.76119403,16 L9.50746269,11.1492537 C9.61940299,10.2910448 10.2910448,9.61940299 11.1492537,9.50746269 L16,8.76119403 C15.5149254,7.94029851 15.3656716,6.93283582 15.6268657,6 L10.6641791,6.74626866 C8.42537313,7.08208955 7.08208955,8.5 6.74626866,10.6641791 L6,15.6268657 C6.59701493,15.4776119 7.15671642,15.4402985 7.71641791,15.5895522 Z" id="Path"></path>
                            <path d="M47.2835821,39.4104478 C46.9104478,39.3358209 46.5746269,39.1865672 46.238806,39 L45.4925373,43.8507463 C45.380597,44.7089552 44.7089552,45.380597 43.8507463,45.4925373 L39,46.238806 C39.4850746,47.0597015 39.6343284,48.0671642 39.3731343,49 L44.3358209,48.2537313 C46.5746269,47.9179104 47.9179104,46.5 48.2537313,44.3358209 L49,39.3731343 C48.4029851,39.5223881 47.8432836,39.5597015 47.2835821,39.4104478 Z" id="Path"></path>
                            <path d="M5.49587796,32.5357143 C5.63991283,32.4642857 5.81995642,32.4285714 6,32.3928571 L3.19132008,28.6071429 C2.68719804,27.9285714 2.68719804,27.0357143 3.19132008,26.3928571 L6,22.6071429 C5.09978208,22.3928571 4.3075903,21.8214286 3.83947698,21 L0.95877963,24.8571429 C-0.337534179,26.6071429 -0.301525462,28.4642857 0.95877963,30.1428571 L3.83947698,34 C4.12754672,33.5 4.52364261,33.1071429 4.99175593,32.8214286 C5.13579079,32.7142857 5.31583438,32.6071429 5.49587796,32.5357143 Z" id="Path"></path>
                            <path d="M54.0412204,24.8571429 L51.160523,21 C50.8724533,21.5 50.4763574,21.8928571 50.0082441,22.1785714 C49.6841656,22.3928571 49.3600872,22.5357143 49,22.6071429 L51.8086799,26.3928571 C52.312802,27.0714286 52.312802,27.9642857 51.8086799,28.6071429 L49,32.3928571 C49.9002179,32.6071429 50.6924097,33.1785714 51.160523,34 L54.0412204,30.1428571 C55.3375342,28.3928571 55.3015255,26.5357143 54.0412204,24.8571429 Z" id="Path"></path>
                            <path d="M9.50746269,43.8507463 L8.76119403,39 C7.94029851,39.4850746 6.93283582,39.6343284 6,39.3731343 L6.74626866,44.3358209 C7.08208955,46.5746269 8.5,47.9179104 10.6641791,48.2537313 L15.6268657,49 C15.4776119,48.4402985 15.4402985,47.8432836 15.5895522,47.2835821 C15.6641791,46.9104478 15.8134328,46.5746269 16,46.238806 L11.1492537,45.4925373 C10.2910448,45.3432836 9.65671642,44.6716418 9.50746269,43.8507463 Z" id="Path"></path>
                            <path d="M45.4925373,11.1492537 L46.238806,16 C47.0597015,15.5149254 48.0671642,15.3656716 49,15.6268657 L48.2537313,10.6641791 C47.9179104,8.42537313 46.5,7.08208955 44.3358209,6.74626866 L39.3731343,6 C39.5223881,6.55970149 39.5597015,7.15671642 39.4104478,7.71641791 C39.3358209,8.08955224 39.1865672,8.42537313 39,8.76119403 L43.8507463,9.50746269 C44.7089552,9.65671642 45.3432836,10.3283582 45.4925373,11.1492537 Z" id="Path"></path>
                        </g>
                    </g>
                </g>
            </g>
        </g>
    </g>
</svg>