<?xml version="1.0" encoding="UTF-8"?>
<svg width="416px" height="331px" viewBox="0 0 416 331" version="1.1" xmlns="http://www.w3.org/2000/svg" xmlns:xlink="http://www.w3.org/1999/xlink">
    <!-- Generator: Sketch 56.3 (81716) - https://sketch.com -->
    <title>image</title>
    <desc>Created with Sketch.</desc>
    <g id="Core" stroke="none" stroke-width="1" fill="none" fill-rule="evenodd">
        <g id="Haqqımızda" transform="translate(-152.000000, -1623.000000)">
            <g id="main-section" transform="translate(120.000000, 760.000000)">
                <g id="result" transform="translate(0.000000, 848.000000)">
                    <g id="image">
                        <rect id="Rectangle" x="0" y="0" width="483" height="360"></rect>
                        <g id="undraw_trendy_interface_lg8x" transform="translate(32.000000, 15.000000)" fill-rule="nonzero">
                            <rect id="Rectangle" fill="#3F3D56" x="0" y="0" width="303" height="319.450549"></rect>
                            <rect id="Rectangle" fill="#F2F2F2" x="16" y="16.8131868" width="287" height="302.637363"></rect>
                            <rect id="Rectangle" fill="#3F3D56" x="11" y="60.3296703" width="90" height="8.9010989"></rect>
                            <rect id="Rectangle" fill="#3F3D56" x="11" y="83.0769231" width="90" height="8.9010989"></rect>
                            <rect id="Rectangle" fill="#3F3D56" x="11" y="105.824176" width="90" height="8.9010989"></rect>
                            <ellipse id="Oval" fill="#3F3D56" cx="129" cy="65.2747253" rx="8" ry="7.91208791"></ellipse>
                            <ellipse id="Oval" fill="#3F3D56" cx="129" cy="87.032967" rx="8" ry="7.91208791"></ellipse>
                            <ellipse id="Oval" fill="#3F3D56" cx="129" cy="108.791209" rx="8" ry="7.91208791"></ellipse>
                            <rect id="Rectangle" fill="#FFFFFF" x="49" y="164.175824" width="223" height="131.538462"></rect>
                            <path d="M50,295.714286 C53.5129866,294.875564 56.9849827,294.077283 60.4159884,293.319443 L55.673999,275.807742 C57.3229262,274.797258 64.4717554,284.932408 64.4717554,284.932408 L58.4495452,234.281914 C66.6993895,236.307939 70.5195825,287.973974 70.5195825,287.973974 L79.8806593,270.760381 L75.2666936,290.25262 C113.059151,282.961985 145.664123,280.703538 173.071357,281.24415 L169.010447,266.253636 C170.65937,265.243153 177.808203,275.373246 177.808203,275.373246 L171.785993,224.722743 C180.035807,226.753808 183.85603,278.419847 183.85603,278.419847 L193.222203,261.201227 L188.33172,281.850456 C211.29912,283.239869 230.016117,286.569407 244.452021,290.207142 C240.406476,266.910448 226.236876,244.508012 226.236876,244.508012 C237.139325,250.762906 242.808203,260.943543 245.73739,270.376399 C246.208656,235.104598 244.158607,199.843905 239.602495,164.856626 C238.107191,153.443202 236.263667,141.625584 234.015572,129.56044 C234.13847,130.070707 237.518271,144.217481 241.394806,164.856626 C247.427277,196.95462 254.642653,244.775785 252.625006,281.496759 L252.199992,292.293774 C256.219908,293.450786 259.819939,294.607797 263,295.714286 L50,295.714286 Z" id="Path" fill="#3F3D56"></path>
                            <ellipse id="Oval" fill="#1BB2E5" cx="86.5" cy="192.857143" rx="21.5" ry="20.7692308"></ellipse>
                            <ellipse id="Oval" fill="#1BB2E5" cx="128.5" cy="64.7802198" rx="3.5" ry="3.46153846"></ellipse>
                            <ellipse id="Oval" fill="#1BB2E5" cx="128.5" cy="87.5274725" rx="3.5" ry="3.46153846"></ellipse>
                            <ellipse id="Oval" fill="#1BB2E5" cx="128.5" cy="108.296703" rx="3.5" ry="3.46153846"></ellipse>
                            <rect id="Rectangle" fill="#3F3D56" x="279" y="226.483516" width="9" height="1"></rect>
                            <path d="M295,227.966575 C292.342044,228.952742 289.044217,230.635349 287,232.417582 L288.610054,227.966575 L287,223.516484 C289.044217,225.298713 292.342044,226.98132 295,227.966575 Z" id="Path" fill="#3F3D56"></path>
                            <rect id="Rectangle" fill="#3F3D56" x="31" y="226.483516" width="9" height="1"></rect>
                            <path d="M24,227.967491 C26.6579429,226.981324 29.9557842,225.298713 32,223.516484 L30.3899466,227.967491 L32,232.417582 C29.9557842,230.635353 26.6579429,228.952746 24,227.967491 Z" id="Path" fill="#3F3D56"></path>
                            <ellipse id="Oval" fill="#1BB2E5" cx="11.5" cy="8.40659341" rx="3.5" ry="3.46153846"></ellipse>
                            <ellipse id="Oval" fill="#1BB2E5" cx="24.5" cy="8.40659341" rx="3.5" ry="3.46153846"></ellipse>
                            <ellipse id="Oval" fill="#1BB2E5" cx="38.5" cy="8.40659341" rx="3.5" ry="3.46153846"></ellipse>
                            <rect id="Rectangle" fill="#F2F2F2" x="279" y="5.93406593" width="15" height="1"></rect>
                            <rect id="Rectangle" fill="#F2F2F2" x="279" y="7.91208791" width="15" height="1"></rect>
                            <rect id="Rectangle" fill="#F2F2F2" x="279" y="10.8791209" width="15" height="1"></rect>
                            <rect id="Rectangle" fill="#2F2E41" x="0" y="318.461538" width="416" height="1"></rect>
                            <polygon id="Path" fill="#FFB8B8" points="332.4 305.96044 334 313.081319 326 314.505495 327.2 305.604396"></polygon>
                            <polygon id="Path" fill="#FFB8B8" points="359 301.813187 356.931034 312.527473 347 312.527473 351.137931 299.67033"></polygon>
                            <path d="M370.243744,228.047447 L372,239.634376 L369.80468,264.953962 C369.80468,264.953962 370.243744,265.383108 369.80468,266.670544 C369.365616,267.957981 370.682808,268.816272 369.80468,269.245417 C368.926552,269.674563 368.048424,274.395164 368.048424,274.395164 L360.584336,305.293641 C360.584336,305.293641 352.242119,305.293641 350.924927,301.860477 L353.120247,284.265511 C353.120247,284.265511 353.120247,274.824309 353.998375,272.249436 C354.876503,269.674563 354.876503,270.103708 354.437439,268.387126 C353.998375,266.670544 351.803055,267.528835 353.559311,266.241399 L355.315567,264.953962 L352.681183,263.23738 L347.412415,239.205231 L338.192071,271.82029 C338.192071,271.82029 337.753007,282.548929 336.435815,286.411238 C335.118623,290.273548 333.362366,307.010224 333.362366,307.010224 C333.362366,307.010224 325.898278,308.29766 325.459214,307.010224 C325.02015,305.722787 324.581086,275.253455 324.581086,270.532854 C324.581086,265.812253 327.21547,266.670544 326.337342,264.953962 C325.459214,263.23738 325.459214,263.23738 325.459214,262.379089 C325.459214,261.520798 327.21547,261.949943 326.337342,260.662507 C325.459214,259.37507 322,220.549451 322,220.549451 L370.243744,228.047447 Z" id="Path" fill="#2F2E41"></path>
                            <path d="M352.256474,310.832025 C352.256474,310.832025 354.460396,311.255887 355.782749,310.832025 C357.105103,310.408163 355.782749,307.864992 355.782749,307.864992 L360.631378,307.864992 C360.631378,307.864992 365.920792,319.309262 368.124714,320.156986 C370.328637,321.00471 377.381188,330.32967 369.006283,330.32967 C363.838719,330.265863 358.795564,328.796306 354.460396,326.091052 C354.460396,326.091052 353.578827,322.276295 349.611767,321.852433 C345.644707,321.428571 343,316.766091 343,316.766091 L348.730198,306.593407 C348.730198,306.593407 350.052551,311.255887 352.256474,310.832025 Z" id="Path" fill="#2F2E41"></path>
                            <path d="M330.278006,310.091316 C330.278006,310.091316 329.419461,311.840271 328.560917,310.965794 C327.702373,310.091316 326.843828,307.905123 326.843828,307.905123 C326.843828,307.905123 324.268195,306.593407 323.838923,307.905123 C323.409651,309.216839 321.692562,316.212658 320.834017,317.087135 C319.975473,317.961613 310.960757,327.143625 319.975473,328.89258 C328.990189,330.641535 330.707278,326.706387 330.707278,326.706387 C330.707278,326.706387 329.419461,324.520193 331.995095,323.645716 C334.570728,322.771238 335,319.710567 335,319.710567 L333.282911,306.593407 C333.282911,306.593407 331.565822,310.965794 330.278006,310.091316 Z" id="Path" fill="#2F2E41"></path>
                            <path d="M378.415626,197.802198 L379.765035,219.83717 C379.765035,219.83717 386.062277,233.820903 377.51602,233.397154 C368.969762,232.973404 374.367398,219.413421 374.367398,219.413421 L366,199.747441 L378.415626,197.802198 Z" id="Path" fill="#FFB8B8"></path>
                            <path d="M311.584373,190.879121 L310.234965,212.914094 C310.234965,212.914094 303.937724,226.897826 312.483979,226.474077 C321.030235,226.050327 315.6326,212.490344 315.6326,212.490344 L324,192.824364 L311.584373,190.879121 Z" id="Path" fill="#FFB8B8"></path>
                            <ellipse id="Oval" fill="#FFB8B8" cx="346.5" cy="133.021978" rx="11.5" ry="11.3736264"></ellipse>
                            <path d="M355.976942,137.472527 C355.976942,137.472527 352.907708,149.332988 359.046176,152.298103 C365.184643,155.263218 339.753848,159.499097 338,152.298103 L338.876924,148.9094 C338.876924,148.9094 342.38462,144.673521 341.507696,140.86123 L355.976942,137.472527 Z" id="Path" fill="#FFB8B8"></path>
                            <path d="M349.658343,151.527086 C349.658343,151.527086 342.310918,152.219329 340.023286,147.362637 C340.023286,147.362637 322.832293,148.52004 319,164.414422 L325.387155,205.653899 C325.387155,205.653899 327.090396,212.956723 324.535534,214.675034 C321.980672,216.393346 318.57419,217.682079 319.42581,218.970813 C319.42581,218.970813 315.167707,230.998994 354.342256,231.428571 L371.374669,230.569416 C371.604975,228.127519 371.461356,225.664408 370.948859,223.266592 C370.097238,219.400391 369.245618,219.829969 370.097238,217.252501 C370.948859,214.675034 370.523048,212.956723 370.523048,212.956723 L365.413325,192.336984 C365.413325,192.336984 378.187634,172.146824 376.910203,169.139779 C375.632772,166.132734 373.587009,154.276058 357.151668,149.464949 C357.151668,149.464949 356.897118,151.956664 349.658343,151.527086 Z" id="Path" fill="#D0CDE1"></path>
                            <path d="M371.023697,162.197802 L376.720825,169.579002 C376.720825,169.579002 382.417952,200.406365 380.664989,200.840554 C378.912027,201.274742 368.394254,204.748248 366.641292,203.445683 C364.88833,202.143118 357,176.526013 357,176.526013 L371.023697,162.197802 Z" id="Path" fill="#D0CDE1"></path>
                            <path d="M324.876864,159.230769 L316.959289,164.057294 C316.959289,164.057294 305.315797,194.77154 308.575975,196.087865 C311.836153,197.40419 330,196.52664 330,196.52664 L324.876864,159.230769 Z" id="Path" fill="#D0CDE1"></path>
                            <path d="M359.15492,122.515437 C359.15492,122.515437 355.314102,114.054239 347.952539,116.006826 C340.590975,117.959413 336.43009,120.888284 336.110023,123.81716 C335.789956,126.746035 336.270055,131.139351 336.270055,131.139351 C336.270055,131.139351 337.070225,125.118883 342.191315,126.420606 C347.312405,127.722329 355.314102,126.746035 355.314102,126.746035 L356.594375,138.461538 C356.594375,138.461538 358.034683,136.346239 359.635023,137.647962 C361.235362,138.949685 364.276006,125.118865 359.15492,122.515437 Z" id="Path" fill="#2F2E41"></path>
                            <path d="M397.064061,306.95943 C401.970626,315.698874 412.384122,319.450549 412.384122,319.450549 C412.384122,319.450549 414.84252,309.032761 409.935937,300.293317 C405.029354,291.553874 394.615871,287.802198 394.615871,287.802198 C394.615871,287.802198 392.157491,298.219982 397.064061,306.95943 Z" id="Path" fill="#3F3D56"></path>
                            <path d="M401.142697,304.165937 C409.70311,309.175234 413,319.125081 413,319.125081 C413,319.125081 402.417716,320.953251 393.857303,315.943953 C385.29689,310.934656 382,300.984809 382,300.984809 C382,300.984809 392.582284,299.156639 401.142697,304.165937 Z" id="Path" fill="#1BB2E5"></path>
                        </g>
                    </g>
                </g>
            </g>
        </g>
    </g>
</svg>