<?xml version="1.0" encoding="UTF-8"?>
<svg width="378px" height="317px" viewBox="0 0 378 317" version="1.1" xmlns="http://www.w3.org/2000/svg" xmlns:xlink="http://www.w3.org/1999/xlink">
    <!-- Generator: Sketch 56.3 (81716) - https://sketch.com -->
    <title>image</title>
    <desc>Created with Sketch.</desc>
    <g id="Core" stroke="none" stroke-width="1" fill="none" fill-rule="evenodd">
        <g id="Haqqımızda" transform="translate(-171.000000, -1206.000000)">
            <g id="main-section" transform="translate(120.000000, 760.000000)">
                <g id="development" transform="translate(0.000000, 424.000000)">
                    <g id="image">
                        <rect id="Rectangle" x="0" y="0" width="483" height="360"></rect>
                        <g id="undraw_selecting_1lx3" transform="translate(51.000000, 22.000000)" fill-rule="nonzero">
                            <path d="M224,305.500015 C224,311.834693 185.725363,316.966857 138.429997,317 L138,317 C114.91409,317 93.9504184,315.783244 78.5027967,313.808983 C77.8416181,313.719024 77.1896663,313.63381 76.5515995,313.543855 C73.9253671,313.188768 71.4702084,312.805279 69.2092309,312.407572 C58.4037523,310.480643 52,308.08975 52,305.500015 C52,303.402627 56.1890306,301.442584 63.5082834,299.747639 C67.373653,298.852819 72.1082753,298.038506 77.5641804,297.318859 C78.5675359,297.181559 79.5970692,297.05215 80.6527805,296.93063 C95.8692487,295.107876 115.968269,294 138,294 C142.28151,294 146.493652,294.042624 150.608718,294.123102 C192.124514,294.937415 224,299.719233 224,305.500015 Z" id="Path" fill="#3F3D56"></path>
                            <rect id="Rectangle" fill="#F2F2F2" x="250" y="167" width="127" height="65"></rect>
                            <rect id="Rectangle" fill="#F2F2F2" x="92" y="1" width="127" height="65"></rect>
                            <path d="M220,66 L91,66 L91,0 L220,0 L220,66 Z M91.8012409,65.2048166 L219.198759,65.2048166 L219.198759,0.795179359 L91.8012409,0.795179359 L91.8012409,65.2048166 Z" id="Shape" fill="#1BB2E5"></path>
                            <rect id="Rectangle" fill="#F2F2F2" x="250" y="1" width="127" height="65"></rect>
                            <rect id="Rectangle" fill="#F2F2F2" x="92" y="85" width="127" height="65"></rect>
                            <rect id="Rectangle" fill="#F2F2F2" x="250" y="85" width="127" height="65"></rect>
                            <rect id="Rectangle" fill="#F2F2F2" x="92" y="167" width="127" height="65"></rect>
                            <circle id="Oval" fill="#F2F2F2" cx="16.5" cy="32.5" r="16.5"></circle>
                            <path d="M62.5002452,16 C55.826715,16 49.8103027,20.0200349 47.2564524,26.1855726 C44.7026022,32.3511103 46.1142513,39.4479517 50.8331498,44.1668502 C55.5520483,48.8857487 62.6488897,50.2973978 68.8144274,47.7435476 C74.9799651,45.1896973 79,39.173285 79,32.4997548 C79,23.3871918 71.6128082,16 62.5002452,16 L62.5002452,16 Z M69.6505071,38.6297845 L68.2278405,40.052451 L62.2990301,34.1236365 L56.3702155,40.052451 L54.947549,38.6297845 L60.8763635,32.700974 L54.1426842,25.9672784 L55.5653467,24.5446159 L62.2990301,31.2783279 L69.0327094,24.5446159 L70.4553718,25.9673111 L63.7216925,32.7009945 L69.6505071,38.6297845 Z" id="Shape" fill="#F2F2F2"></path>
                            <polygon id="Path" fill="#1BB2E5" points="15.4983439 41 8 30.8603039 9.58651469 29.6350803 15.6095293 37.779967 32.501625 18 34 19.3355185"></polygon>
                            <path d="M205,232.867921 C199.805129,232.008234 194.809195,231.269935 190.0122,230.653024 L191.908569,227.06152 C191.269112,226.844574 188.459671,228.901322 188.459671,228.901322 L190.948346,218.476053 C187.732275,218.854901 186.097109,229.499738 186.097109,229.499738 L182.503921,225.900791 L184.243512,229.946953 C171.624425,228.456812 158.928093,227.676304 146.217314,227.609288 L147.840414,224.53534 C147.200957,224.318395 144.391515,226.375143 144.391515,226.375143 L146.880186,215.949869 C143.66412,216.328721 142.028949,226.973559 142.028949,226.973559 L138.435766,223.374608 L140.278254,227.660158 C132.971098,227.778031 125.674949,228.262134 118.418594,229.110559 C120.0603,224.321898 125.637226,219.7675 125.637226,219.7675 C121.378153,221.004835 119.144036,223.07825 117.976646,225.011275 C117.872323,215.130616 119.554279,205.309527 122.945105,196 C122.945105,196 114.141747,214.71255 115.26504,227.273197 L115.399395,229.503607 C107.936131,230.547459 105,233 105,233 L205,232.867921 Z" id="Path" fill="#3F3D56"></path>
                            <circle id="Oval" fill="#FF6584" cx="144" cy="103" r="14"></circle>
                            <polygon id="Path" fill="#3F3D56" points="294.66651 192.302006 293 191.018875 302.333354 183 326 183 326 190.056626 310.66672 200"></polygon>
                            <polygon id="Path" fill="#CCCCCC" points="331.365387 187.553235 331.365387 183.162402 328.266071 183.162402 328.266071 184.237521 327.109218 183 319.546951 191.11693 316.587907 193.064961 312 226.167163 318.919348 233 335 233 335 191.441734"></polygon>
                            <rect id="Rectangle" fill="#F2F2F2" x="293" y="191" width="25" height="42"></rect>
                            <rect id="Rectangle" fill="#CCCCCC" x="303" y="223" width="5" height="11"></rect>
                            <polygon id="Path" fill="#3F3D56" points="298 227 298 225 296 225 296 227 297.833674 227"></polygon>
                            <polygon id="Path" fill="#3F3D56" points="297.833674 228 296 228 296 230 298 230 298 228"></polygon>
                            <rect id="Rectangle" fill="#3F3D56" x="300" y="225" width="2" height="2"></rect>
                            <rect id="Rectangle" fill="#3F3D56" x="300" y="228" width="2" height="2"></rect>
                            <polygon id="Path" fill="#3F3D56" points="312 227 312 225 310 225 310 227 311.833265 227"></polygon>
                            <polygon id="Path" fill="#3F3D56" points="311.833265 228 310 228 310 230 312 230 312 228"></polygon>
                            <rect id="Rectangle" fill="#3F3D56" x="313" y="225" width="2" height="2"></rect>
                            <rect id="Rectangle" fill="#3F3D56" x="313" y="228" width="2" height="2"></rect>
                            <polygon id="Path" fill="#3F3D56" points="325 194 325 192 323 192 323 194 324.833265 194"></polygon>
                            <polygon id="Path" fill="#3F3D56" points="324.833265 194 323 194 323 196 325 196 325 194"></polygon>
                            <rect id="Rectangle" fill="#3F3D56" x="327" y="192" width="2" height="2"></rect>
                            <rect id="Rectangle" fill="#3F3D56" x="327" y="194" width="2" height="2"></rect>
                            <polygon id="Path" fill="#3F3D56" points="325 203 325 201 323 201 323 203 324.833265 203"></polygon>
                            <polygon id="Path" fill="#3F3D56" points="324.833265 203 323 203 323 205 325 205 325 203"></polygon>
                            <rect id="Rectangle" fill="#3F3D56" x="327" y="201" width="2" height="2"></rect>
                            <rect id="Rectangle" fill="#3F3D56" x="327" y="203" width="2" height="2"></rect>
                            <polygon id="Path" fill="#3F3D56" points="325 212 325 210 323 210 323 212 324.833265 212"></polygon>
                            <polygon id="Path" fill="#3F3D56" points="324.833265 212 323 212 323 214 325 214 325 212"></polygon>
                            <rect id="Rectangle" fill="#3F3D56" x="327" y="210" width="2" height="2"></rect>
                            <rect id="Rectangle" fill="#3F3D56" x="327" y="212" width="2" height="2"></rect>
                            <polygon id="Path" fill="#3F3D56" points="325 221 325 219 323 219 323 221 324.833265 221"></polygon>
                            <polygon id="Path" fill="#3F3D56" points="324.833265 221 323 221 323 223 325 223 325 221"></polygon>
                            <rect id="Rectangle" fill="#3F3D56" x="327" y="219" width="2" height="2"></rect>
                            <rect id="Rectangle" fill="#3F3D56" x="327" y="221" width="2" height="2"></rect>
                            <rect id="Rectangle" fill="#3F3D56" x="296" y="192" width="19" height="5"></rect>
                            <rect id="Rectangle" fill="#3F3D56" x="296" y="201" width="19" height="5"></rect>
                            <rect id="Rectangle" fill="#3F3D56" x="296" y="209" width="19" height="5"></rect>
                            <rect id="Rectangle" fill="#3F3D56" x="296" y="216" width="19" height="5"></rect>
                            <polygon id="Path" fill="#3F3D56" points="144.666868 190.000036 161.422303 190.000036 161.422303 186 170.666667 186 170.666667 190.000036 188 190.000036 188 207.714426 170.666667 207.714426 170.666667 230 161.422303 230 161.422303 207.714426 144.666868 207.714426 136 198.000109"></polygon>
                            <path d="M192,150 L191.209997,150 C191.209997,128.343534 173.87894,110.7875 152.5,110.7875 C131.121056,110.7875 113.789999,128.343534 113.789999,150 L113,150 C113.006954,127.906547 130.68967,110 152.5,110 C174.31033,110 191.993046,127.906547 192,150 Z" id="Path" fill="#3F3D56"></path>
                            <polygon id="Rectangle" fill="#3F3D56" transform="translate(134.225285, 129.644440) rotate(-0.107716) translate(-134.225285, -129.644440) " points="133.71656 109.569718 134.73394 109.569719 134.73401 149.719163 133.71663 149.719161"></polygon>
                            <path d="M143.999369,113.936667 C144.091052,127.743787 134.166007,139 134.166007,139 C134.166007,139 124.092315,127.870452 124.000631,114.063333 C123.908948,100.256213 133.833989,89 133.833989,89 C133.833989,89 143.907681,100.129548 143.999369,113.936667 Z" id="Path" fill="#1BB2E5"></path>
                            <path d="M143.999369,113.936667 C144.091052,127.743787 134.166007,139 134.166007,139 C134.166007,139 124.092315,127.870452 124.000631,114.063333 C123.908948,100.256213 133.833989,89 133.833989,89 C133.833989,89 143.907681,100.129548 143.999369,113.936667 Z" id="Path" fill="#000000" opacity="0.1"></path>
                            <polygon id="Rectangle" fill="#3F3D56" transform="translate(120.999342, 129.669286) rotate(-0.107716) translate(-120.999342, -129.669286) " points="120.490617 109.594563 121.507997 109.594565 121.508067 149.744008 120.490687 149.744007"></polygon>
                            <path d="M130.999369,113.936669 C131.091056,127.743788 121.166009,139 121.166009,139 C121.166009,139 111.092315,127.870449 111.000631,114.063331 C110.908948,100.256212 120.833991,89 120.833991,89 C120.833991,89 130.907685,100.129535 130.999369,113.936669 Z" id="Path" fill="#1BB2E5"></path>
                            <rect id="Rectangle" fill="#3F3D56" x="189" y="118" width="1" height="32"></rect>
                            <path d="M196.999761,121.963993 C197.048632,133.009688 189.588489,142 189.588489,142 C189.588489,142 182.04911,133.081701 182.000239,122.036007 C181.951368,110.990312 189.411515,102 189.411515,102 C189.411515,102 196.950883,110.918295 196.999761,121.963993 Z" id="Path" fill="#1BB2E5"></path>
                            <circle id="Oval" fill="#3F3D56" cx="312" cy="118" r="28"></circle>
                            <polygon id="Path" fill="#1BB2E5" points="314 108 314 118.588279 297.247408 118.588279 294.152201 122 294.505548 118.588279 293 118.588279 293 108"></polygon>
                            <rect id="Rectangle" fill="#000000" opacity="0.1" x="307" y="111" width="8" height="8"></rect>
                            <polygon id="Path" fill="#1BB2E5" points="309 115 330 115 330 125.588279 328.49405 125.588279 328.847799 129 325.752994 125.588279 309 125.588279"></polygon>
                            <ellipse id="Oval" fill="#000000" opacity="0.1" cx="295" cy="124.5" rx="5" ry="1"></ellipse>
                            <ellipse id="Oval" fill="#000000" opacity="0.1" cx="328.5" cy="131" rx="5.5" ry="1"></ellipse>
                            <path d="M327.573123,9 L309.183123,9 C307.355313,9 305.771477,10.265241 305.369491,12.0463901 L296.077386,53.2178856 C295.872224,54.1269107 296.079671,55.0800389 296.644147,55.8219128 C297.208623,56.5637867 298.072429,57.018574 299.004139,57.0644303 L317.909186,57.994883 C320.003246,58.0979479 321.848919,56.633345 322.222109,54.5724359 L327.493157,25.4637217 L327.885298,25.5756418 L328.893866,20.0584517 L328.490209,19.9576464 L329.961543,11.8323601 C330.089136,11.1277414 329.895698,10.4029789 329.433878,9.85533644 C328.972059,9.30769395 328.28992,8.994164 327.573123,9 L327.573123,9 Z" id="Path" fill="#3F3D56"></path>
                            <path d="M312.04987,10 L309.855407,10 C308.556961,10 307.433856,10.8795797 307.157071,12.1132525 L298.039345,52.7521955 C297.933118,53.2256646 298.04439,53.7206444 298.344091,54.1078163 C298.643791,54.4949883 299.102147,54.7358899 299.599409,54.7675831 L318.86286,55.9953274 C319.987986,56.0670391 320.989147,55.3058449 321.189026,54.2267173 L328.96924,12.2224133 C329.071181,11.6720451 328.916948,11.1060491 328.548119,10.6769971 C328.179289,10.2479452 327.633827,10 327.058768,10 L324.976977,10 C324.56273,10 324.200023,10.2703179 324.092331,10.6593083 L324.092331,10.6593083 C323.997257,11.0027164 323.677051,11.2413576 323.311345,11.2413576 L313.428337,11.2413576 C312.705911,11.2413559 312.105279,10.7004662 312.04987,10 L312.04987,10 Z" id="Path" fill="#1BB2E5"></path>
                            <circle id="Oval" fill="#1BB2E5" cx="157.5" cy="33.5" r="26.5"></circle>
                            <path d="M181.222572,50 C176.100426,50 164.789351,44.6640576 154.729734,38.4143852 C142.246682,30.6591128 130.123137,20.5224496 132.242597,17.012359 C132.84168,16.0204191 134.326515,15.7610116 136.782798,16.2183581 L136.606692,17.1909853 C134.704589,16.8359855 133.41743,16.9599103 133.073944,17.5286069 C132.572916,18.3583355 133.677624,20.7670583 138.280333,25.0389647 C142.474827,28.9323793 148.497492,33.3829119 155.239015,37.5711394 C161.980379,41.7593668 168.62576,45.1790158 173.950665,47.2002272 C179.793891,49.4184145 182.411205,49.3215366 182.911919,48.4924529 C183.255882,47.9227808 182.778014,46.7020064 181.600642,45.1426432 L182.374559,44.5414308 C183.894936,46.5552428 184.342659,48.0164385 183.743266,49.0087008 C183.331717,49.6903844 182.456739,50 181.222572,50 Z" id="Path" fill="#3F3D56"></path>
                            <circle id="Oval" fill="#FFFFFF" cx="154" cy="19" r="6"></circle>
                            <circle id="Oval" fill="#FFFFFF" cx="156" cy="49" r="4"></circle>
                            <circle id="Oval" fill="#FFFFFF" cx="168" cy="37" r="4"></circle>
                            <path d="M378,233 L249,233 L249,167 L378,167 L378,233 Z M249.801249,232.204821 L377.198759,232.204821 L377.198759,167.795183 L249.801249,167.795183 L249.801249,232.204821 Z" id="Shape" fill="#1BB2E5"></path>
                            <path d="M377,151 L248,151 L248,85 L377,85 L377,151 Z M248.801237,150.204817 L376.198747,150.204817 L376.198747,85.7951794 L248.801237,85.7951794 L248.801237,150.204817 Z" id="Shape" fill="#1BB2E5"></path>
                            <path d="M91.6730165,291.585071 C93.9016772,299.869341 101.535345,305 101.535345,305 C101.535345,305 105.555639,296.699199 103.326979,288.414929 C101.098318,280.130659 93.46465,275 93.46465,275 C93.46465,275 89.4443682,283.300797 91.6730165,291.585071 Z" id="Path" fill="#3F3D56"></path>
                            <path d="M94.1828305,289.286611 C100.257969,295.085602 101,304 101,304 C101,304 91.8922914,303.512375 85.8171736,297.713385 C79.7420557,291.914394 79,283 79,283 C79,283 88.1076921,283.487621 94.1828305,289.286611 Z" id="Path" fill="#1BB2E5"></path>
                            <path d="M114.661495,178.629623 L108.263752,179.337931 C108.263752,179.337931 105.42031,192.087459 108.263752,209.086834 C111.107195,226.086209 114.661495,243.08558 114.661495,243.08558 C114.661495,243.08558 117.504938,298.33354 118.926657,299.041849 C120.348376,299.750157 133.143866,304 133.854724,299.750157 C134.565582,295.500314 134.565586,198.462223 134.565586,198.462223 L144.517633,245.210502 C144.517633,245.210502 145.939352,304 148.782795,304 C151.626238,304 160.867419,303.291692 160.867419,298.33354 C160.867419,293.375389 163,228.211106 163,228.211106 C163,228.211106 162.289142,180.046219 159.4457,178.629602 C156.602257,177.212985 114.661495,178.629623 114.661495,178.629623 Z" id="Path" fill="#2F2E41"></path>
                            <path d="M120.650897,297.29703 C120.650897,297.29703 114.32764,296.628712 112.922465,297.29703 C111.517291,297.965348 109.409542,302.643563 112.922465,305.316831 C116.435388,307.9901 125.568979,312 128.379329,312 C131.189678,312 134,310.663368 134,310.663368 L132.594833,299.30198 L120.650897,297.29703 Z" id="Path" fill="#2F2E41"></path>
                            <path d="M148,300.891204 L148.720564,310.396491 C148.720564,310.396491 158.087934,311.754387 158.808503,310.396491 C159.529071,309.038594 166.734745,305.643847 167.455305,304.964897 C168.175865,304.285947 168.896441,296.817511 164.57304,296.138561 C160.249639,295.459611 158.808503,297.496461 158.808503,297.496461 L148,300.891204 Z" id="Path" fill="#2F2E41"></path>
                            <path d="M166.213744,96 C166.213744,96 181.344188,85.9847322 180.994014,79.1040464 C180.643841,72.2233605 171.52256,50.528353 171.52256,50.528353 C171.52256,50.528353 164.387029,35.2576731 161.550321,41.4984824 C158.713614,47.7392917 165.278649,54.3824572 165.278649,54.3824572 L169.516022,75.6643832 L158,86.9729016 L166.213744,96 Z" id="Path" fill="#A0616A"></path>
                            <circle id="Oval" fill="#A0616A" cx="126.5" cy="69.5" r="12.5"></circle>
                            <path d="M121,76.2437829 L123.039998,89 L138,86.3144796 C138,86.3144796 137.320003,73.5582626 137.320003,72.2155043 C137.320003,70.872746 121,76.2437829 121,76.2437829 Z" id="Path" fill="#A0616A"></path>
                            <path d="M119.820809,89.1103142 C119.820809,89.1103142 137.247479,84.8768322 139.338679,86.2879915 C141.429879,87.6991508 151.88588,89.1103142 151.88588,89.1103142 L163.736017,107.455406 L160.25068,130.739557 C160.25068,130.739557 159.553616,168.135321 160.947748,174.485544 C162.341881,180.835767 170.009617,181.541349 153.97708,182.952508 C137.944543,184.363667 135.156299,182.24693 124.00321,185.069249 C112.850121,187.891568 103.788272,183.65809 106.57654,180.835767 C109.364809,178.013444 114.244281,132.856302 108.667741,128.622816 C103.0912,124.38933 101,102.516342 101,102.516342 C101,102.516342 119.820809,92.6382145 119.820809,89.1103142 Z" id="Path" fill="#3F3D56"></path>
                            <path d="M150,92.1714279 L152.069928,90.1142853 L156.209783,86 C156.209783,86 169.664315,91.8285701 168.974342,93.8857128 C168.284368,95.9428554 163.799521,107.942857 163.799521,107.942857 L157.589737,110 L150,92.1714279 Z" id="Path" fill="#3F3D56"></path>
                            <path d="M132.291537,53.3307716 L132.1609,52.2976792 C131.29444,52.2926908 130.432896,52.4296521 129.609706,52.7032475 C129.5255,52.0802767 129.579292,51.4461573 129.767187,50.846811 C128.930701,51.0643912 128.133667,51.4149534 127.405851,51.8854056 L126.890855,50 L119.811266,53.5298108 C117.269962,54.7968779 114.590648,56.1892617 113.137913,58.6500305 C111.518329,61.3934242 111.800171,64.9191617 112.907308,67.9118749 C114.014445,70.9045881 115.854138,73.5530138 117.328786,76.3788351 C117.888688,77.5939376 118.561502,78.7524403 119.338148,79.8387093 C122.010413,83.2088675 127.212084,83.8897474 130.979832,81.8557142 C132.370338,81.1050414 133.63371,79.9830542 134.205761,78.4972874 C134.547815,77.6088766 134.626036,76.6421444 134.850147,75.7160676 C135.316201,73.790216 135.857222,69.8147852 137.403399,68.5964298 C138.083778,68.0603054 139.432746,69.8375786 139.996561,69.1773857 C141.44551,67.4807949 141.141417,64.8643276 140.241546,62.8152576 C139.377814,60.7573169 138.368254,58.7651925 137.220749,56.8544396 C136.734555,56.0862662 132.275866,53.206855 132.291537,53.3307716 Z" id="Path" fill="#2F2E41"></path>
                            <path d="M90.0774573,120 C90.0774573,120 73.0564249,136.064867 75.1840504,144.446565 C77.3116759,152.828264 94.3327164,177.274809 94.3327164,177.274809 C94.3327164,177.274809 110.644546,185.656488 112.772175,177.274809 C114.899805,168.893131 101.424816,170.98855 101.424816,170.98855 L90.7866685,145.843511 L102.843235,129.080149 L90.0774573,120 Z" id="Path" fill="#A0616A"></path>
                            <path d="M109.189188,104.441859 L100.756756,103 C100.756756,103 94.432432,110.209302 92.324324,113.093024 C90.216216,115.976746 86,123.186044 86,123.186044 L100.756756,134 L112,121.744185 L109.189188,104.441859 Z" id="Path" fill="#3F3D56"></path>
                        </g>
                    </g>
                </g>
            </g>
        </g>
    </g>
</svg>