<?xml version="1.0" encoding="UTF-8"?>
<svg width="425px" height="220px" viewBox="0 0 425 220" version="1.1" xmlns="http://www.w3.org/2000/svg" xmlns:xlink="http://www.w3.org/1999/xlink">
    <!-- Generator: Sketch 61.2 (89653) - https://sketch.com -->
    <title>Group</title>
    <desc>Created with Sketch.</desc>
    <defs>
        <linearGradient x1="-42.8893152%" y1="88.4765636%" x2="150.477586%" y2="-5.51557096%" id="linearGradient-1">
            <stop stop-color="#403FC6" offset="0%"></stop>
            <stop stop-color="#3661E6" offset="53%"></stop>
            <stop stop-color="#348CFB" offset="100%"></stop>
        </linearGradient>
        <linearGradient x1="-53.3930312%" y1="106.861892%" x2="139.820116%" y2="13.0231058%" id="linearGradient-2">
            <stop stop-color="#403FC6" offset="0%"></stop>
            <stop stop-color="#3661E6" offset="53%"></stop>
            <stop stop-color="#348CFB" offset="100%"></stop>
        </linearGradient>
    </defs>
    <g id="Dashboard" stroke="none" stroke-width="1" fill="none" fill-rule="evenodd">
        <g id="Notes" transform="translate(-673.000000, -853.000000)" fill-rule="nonzero">
            <g id="logo" transform="translate(636.000000, 853.000000)">
                <g id="Group" transform="translate(37.000000, 0.000000)">
                    <g id="Layer_3" transform="translate(0.000000, 16.000000)" fill="url(#linearGradient-1)">
                        <path d="M101.83,0.06 C103.03,0.06 104.22,0.06 105.42,0.12 C126.144913,0.801261072 146.162025,7.82382939 162.77,20.24 L153.87,32.18 C123.849299,9.75382642 82.8418176,9.06967314 52.0897332,30.4819366 C21.3376488,51.8942001 7.7509687,90.5915354 18.3676936,126.528437 C28.9844185,162.465338 61.4189658,187.566768 98.87,188.83 L99.27,188.83 C110.47,189.83 124.65,186.18 140.27,178.3 C152.41,172.17 319.27,69.03 319.27,69.03 L327.04,81.74 L169.78,177.74 C165.78,180.74 130.22,206.37 98.21,203.65 C42.7556344,201.594535 -0.849860692,155.528197 0.139118377,100.044564 C1.12809745,44.5609313 46.3476083,0.0778728876 101.84,1.13686838e-13 L101.83,0.06 Z" id="Path"></path>
                    </g>
                    <g id="Layer_2" transform="translate(97.000000, 0.000000)" fill="url(#linearGradient-2)">
                        <path d="M225.34,203.85 C224.15,203.85 222.95,203.85 221.75,203.79 C201.024248,203.113219 181.005831,196.090193 164.4,183.67 L173.3,171.74 C203.322111,194.157818 244.324792,194.836117 275.07198,173.423594 C305.819168,152.01107 319.403454,113.318085 308.78928,77.3844651 C298.175105,41.4508454 265.746963,16.3491415 228.3,15.08 L227.89,15.08 C216.7,14.08 202.51,17.73 186.89,25.61 C174.75,31.74 7.89,134.88 7.89,134.88 L0.13,122.17 L157.38,26.17 C161.38,23.17 196.94,-2.47 228.95,0.26 C284.513261,2.16657873 328.281905,48.2782069 327.291032,103.865339 C326.300159,159.452471 280.915912,203.974897 225.32,203.900094 L225.34,203.85 Z" id="Path"></path>
                    </g>
                </g>
            </g>
        </g>
    </g>
</svg>